<?xml version="1.0" encoding="utf-8"?>
<!-- Generator: Adobe Illustrator 21.0.0, SVG Export Plug-In . SVG Version: 6.00 Build 0)  -->
<svg version="1.1" id="Layer_1" xmlns="http://www.w3.org/2000/svg" xmlns:xlink="http://www.w3.org/1999/xlink" x="0px" y="0px"
	 viewBox="0 0 408 82.9" style="enable-background:new 0 0 408 82.9;" xml:space="preserve">
<style type="text/css">
	.st0{fill:#77BC1F;}
	.st1{fill:#4A7628;}
	.st2{fill:#FFFFFF;}
</style>
<g>
	<g>
		<polygon class="st0" points="53.1,82 61.4,72.8 78.5,20.2 38.3,0.7 		"/>
		<polygon class="st1" points="38.3,0.7 45.6,41 74.5,32.5 78.5,20.2 		"/>
		<polygon class="st0" points="38.3,0.7 0,37.2 3.1,54.5 78.5,20.2 		"/>
		<polygon class="st1" points="3.1,54.5 53.1,82 61.4,72.8 0,37.2 		"/>
	</g>
	<g>
		<path class="st2" d="M105.6,81.7H86L111.8,0h19.6L105.6,81.7z"/>
		<path class="st2" d="M157.3,21.6l-1.8,8.3c3-3,6.3-5.3,9.9-6.9s7.2-2.5,10.8-2.5c6.2,0,10.5,1.9,12.9,5.8
			c2.3,3.9,2.2,9.9-0.4,18.2l-11.9,37.3h-19.7L169,44.5c1.3-4.2,1.5-7.1,0.6-8.8s-2.9-2.5-5.9-2.5c-1.8,0-3.5,0.4-5.2,1.1
			s-3.3,1.8-4.7,3.1l-14.2,44.4h-19.7l19.2-60.1L157.3,21.6L157.3,21.6z"/>
		<path class="st2" d="M226.7,66c0.5-1.7,0.2-3.2-1.1-4.4s-4-2.8-8.1-4.6c-6.8-2.3-11.6-4.8-14.5-7.7s-3.6-6.6-2.1-11.1
			c1.6-4.9,5.3-9.1,11.2-12.5c5.9-3.5,12.9-5.2,20.8-5.2c8.3,0,14.4,1.8,18.2,5.3c3.8,3.6,4.7,8.1,2.8,13.6l-0.3,0.3h-19
			c0.8-2.5,0.8-4.5,0-6s-2.6-2.2-5.2-2.2c-2.1,0-4.1,0.6-6,1.7c-1.8,1.1-3,2.5-3.6,4.2c-0.6,1.8-0.3,3.2,0.8,4.3s3.9,2.6,8.2,4.5
			c7.2,2.1,12.2,4.7,15,7.6s3.5,6.8,2,11.6c-1.6,5.1-5.5,9.3-11.6,12.6c-6.1,3.3-13.3,4.9-21.6,4.9c-8.6,0-14.8-2-18.6-6.1
			c-3.7-4-4.7-8.6-2.8-13.7l0.2-0.3h18c-0.9,3.2-0.7,5.5,0.6,6.9s3.5,2.1,6.6,2.1c2.6,0,4.8-0.5,6.5-1.6
			C224.9,69.2,226.1,67.8,226.7,66z"/>
		<path class="st2" d="M291.4,18.5h-19.7l3.9-12.1h19.7L291.4,18.5z M271.1,81.7h-19.7L270,25.1h19.7L271.1,81.7z"/>
		<path class="st2" d="M334.7,6.4l-4.8,14.9h10.4l-3.7,11.4h-10.4l-9.9,30.4c-0.8,2.4-0.9,4.2-0.4,5.2c0.5,1.1,1.6,1.6,3.1,1.6
			c1.2,0,2.2,0,3.1-0.1s1.8-0.3,2.9-0.5l-2.3,12c-2.2,0.5-4.3,0.9-6.3,1.1s-4.1,0.3-6.6,0.3c-6.3,0-10.7-1.6-13-4.7
			s-2.4-8.1-0.3-14.9l9.9-30.4h-8.9l3.7-11.4h8.9l4.8-14.9L334.7,6.4L334.7,6.4z"/>
		<path class="st2" d="M359.4,82.9c-9.4,0-16.1-2.5-20.1-7.4c-4-5-4.7-11.2-2.3-18.8l2.7-8.4c2.6-8.1,7.3-14.8,14.1-19.9
			c6.8-5.2,14.8-7.8,23.9-7.8c8.8,0,14.8,2.4,18.1,7.1c3.3,4.7,3.7,11.1,1.1,19.2l-3.1,9.7h-37.1l-0.1,0.2c-1.3,4-1.2,7.2,0.2,9.8
			c1.4,2.6,4.4,3.8,8.9,3.8c3.7,0,6.8-0.3,9.3-1s5.6-1.8,9.3-3.3l1.8,10.1c-3.2,2-7.2,3.6-11.9,4.9S364.6,82.9,359.4,82.9z
			 M373.7,33.1c-3.1,0-5.8,1.2-8,3.5s-4,5.4-5.5,9.3h17.7l0.7-2.2c1.1-3.3,1.3-5.9,0.6-7.8C378.4,34,376.6,33.1,373.7,33.1z"/>
	</g>
</g>
<g>
	<path class="st2" d="M400.2,13.5v0.8h-1.3v4H398v-4h-1.3v-0.8C396.7,13.5,400.2,13.5,400.2,13.5z M402.3,13.5l1.1,2.1l1-2.1h1.4
		v4.8H405v-4l-1.3,2.5h-0.5l-1.4-2.5v4h-0.9v-4.8C400.9,13.5,402.3,13.5,402.3,13.5z"/>
</g>
</svg>
