<?xml version="1.0" encoding="UTF-8" standalone="no"?>
<svg
   xmlns:dc="http://purl.org/dc/elements/1.1/"
   xmlns:cc="http://creativecommons.org/ns#"
   xmlns:rdf="http://www.w3.org/1999/02/22-rdf-syntax-ns#"
   xmlns:svg="http://www.w3.org/2000/svg"
   xmlns="http://www.w3.org/2000/svg"
   viewBox="0 0 825.66803 167.67867"
   height="167.67867"
   width="825.66803"
   xml:space="preserve"
   id="svg2"
   version="1.1"><metadata
     id="metadata8"><rdf:RDF><cc:Work
         rdf:about=""><dc:format>image/svg+xml</dc:format><dc:type
           rdf:resource="http://purl.org/dc/dcmitype/StillImage" /></cc:Work></rdf:RDF></metadata><defs
     id="defs6"><clipPath
       id="clipPath38"
       clipPathUnits="userSpaceOnUse"><path
         id="path36"
         d="M 0,125.759 H 619.251 V 0 H 0 Z" /></clipPath></defs><g
     transform="matrix(1.3333333,0,0,-1.3333333,0,167.67867)"
     id="g10"><g
       transform="translate(84.4646,2.2844)"
       id="g12"><path
         id="path14"
         style="fill:#727272;fill-opacity:1;fill-rule:nonzero;stroke:none"
         d="M 0,0 12.491,13.846 38.225,93.004 -22.272,122.35 Z" /></g><g
       transform="translate(62.1922,124.634)"
       id="g16"><path
         id="path18"
         style="fill:#56585a;fill-opacity:1;fill-rule:nonzero;stroke:none"
         d="m 0,0 10.986,-60.648 43.492,12.792 6.019,18.51 z" /></g><g
       transform="translate(62.1922,124.634)"
       id="g20"><path
         id="path22"
         style="fill:#727272;fill-opacity:1;fill-rule:nonzero;stroke:none"
         d="m 0,0 -57.638,-54.929 4.665,-26.035 113.47,51.618 z" /></g><g
       transform="translate(9.219,43.6702)"
       id="g24"><path
         id="path26"
         style="fill:#56585a;fill-opacity:1;fill-rule:nonzero;stroke:none"
         d="M 0,0 75.246,-41.386 87.736,-27.54 -4.665,26.035 Z" /></g><g
       transform="translate(172.8027,125.6877)"
       id="g28"><path
         id="path30"
         style="fill:#77BC1F;fill-opacity:1;fill-rule:nonzero;stroke:none"
         d="M 0,0 -38.826,-122.951 H -9.33 L 29.497,0 Z" /></g><g
       id="g32"><g
         clip-path="url(#clipPath38)"
         id="g34"><g
 transform="translate(241.2762,93.1814)"
 id="g40"><path
   id="path42"
   style="fill:#77BC1F;fill-opacity:1;fill-rule:nonzero;stroke:none"
   d="m 0,0 -2.709,-12.491 c 4.515,4.515 9.481,7.976 14.899,10.384 5.417,2.408 10.835,3.762 16.253,3.762 9.33,0 15.801,-2.859 19.413,-8.728 3.461,-5.869 3.311,-14.899 -0.602,-27.389 L 29.346,-90.595 H -0.301 l 17.908,56.133 c 1.957,6.32 2.258,10.684 0.903,13.243 -1.354,2.558 -4.364,3.762 -8.879,3.762 -2.708,0 -5.267,-0.602 -7.825,-1.655 -2.558,-1.054 -4.966,-2.709 -7.073,-4.666 l -21.37,-66.817 h -29.647 l 28.895,90.445 z" /></g><g
           transform="translate(345.7166,26.3635)"
           id="g44"><path
   id="path46"
   style="fill:#77BC1F;fill-opacity:1;fill-rule:nonzero;stroke:none"
   d="m 0,0 c 0.753,2.559 0.301,4.815 -1.655,6.621 -1.956,1.807 -6.02,4.214 -12.19,6.923 -10.233,3.461 -17.457,7.224 -21.821,11.588 -4.364,4.364 -5.418,9.932 -3.161,16.704 2.409,7.374 7.976,13.695 16.855,18.811 8.879,5.268 19.413,7.826 31.303,7.826 12.49,0 21.67,-2.709 27.389,-7.976 5.718,-5.417 7.073,-12.189 4.214,-20.467 L 40.482,39.579 H 11.889 c 1.204,3.762 1.204,6.772 0,9.029 -1.203,2.258 -3.912,3.311 -7.826,3.311 -3.16,0 -6.169,-0.903 -9.029,-2.558 -2.709,-1.655 -4.514,-3.762 -5.418,-6.321 -0.902,-2.708 -0.451,-4.815 1.204,-6.471 1.656,-1.655 5.869,-3.913 12.34,-6.772 10.836,-3.16 18.361,-7.073 22.574,-11.438 4.214,-4.364 5.267,-10.233 3.01,-17.457 -2.408,-7.674 -8.277,-13.995 -17.457,-18.961 -9.18,-4.966 -20.016,-7.375 -32.506,-7.375 -12.942,0 -22.273,3.011 -27.991,9.181 -5.568,6.02 -7.073,12.942 -4.214,20.617 l 0.301,0.451 h 27.088 c -1.354,-4.815 -1.053,-8.277 0.903,-10.383 1.956,-2.107 5.268,-3.161 9.933,-3.161 3.913,0 7.223,0.752 9.782,2.409 C -2.709,-4.815 -0.902,-2.709 0,0" /></g><g
           transform="translate(412.5349,2.7366)"
           id="g48"><path
   id="path50"
   style="fill:#77BC1F;fill-opacity:1;fill-rule:nonzero;stroke:none"
   d="M 0,0 H -29.646 L -1.655,85.178 H 27.991 Z M 30.55,95.11 H 0.902 l 5.869,18.209 h 29.648 z" /></g><g
           transform="translate(508.2469,116.0559)"
           id="g52"><path
   id="path54"
   style="fill:#77BC1F;fill-opacity:1;fill-rule:nonzero;stroke:none"
   d="M 0,0 -7.224,-22.423 H 8.428 L 2.859,-39.579 H -12.792 L -27.69,-85.328 c -1.205,-3.612 -1.355,-6.321 -0.602,-7.826 0.752,-1.656 2.408,-2.408 4.665,-2.408 1.806,0 3.311,0 4.665,0.151 1.355,0.15 2.709,0.451 4.364,0.752 l -3.461,-18.059 c -3.31,-0.752 -6.471,-1.354 -9.481,-1.655 -3.01,-0.301 -6.17,-0.451 -9.932,-0.451 -9.481,0 -16.102,2.407 -19.564,7.073 -3.461,4.665 -3.611,12.189 -0.451,22.423 l 14.898,45.749 h -13.393 l 5.568,17.156 h 13.393 L -29.797,0 Z" /></g><g
           transform="translate(566.9382,75.8748)"
           id="g56"><path
   id="path58"
   style="fill:#77BC1F;fill-opacity:1;fill-rule:nonzero;stroke:none"
   d="m 0,0 c -4.665,0 -8.729,-1.806 -12.039,-5.267 -3.311,-3.462 -6.02,-8.127 -8.277,-13.996 H 6.321 l 1.053,3.311 c 1.655,4.966 1.957,8.879 0.903,11.738 C 7.073,-1.354 4.364,0 0,0 m -21.521,-74.945 c -14.145,0 -24.228,3.763 -30.248,11.137 -6.019,7.524 -7.073,16.855 -3.461,28.292 l 4.063,12.641 c 3.913,12.19 10.986,22.273 21.22,29.948 10.233,7.826 22.272,11.739 35.967,11.739 13.243,0 22.272,-3.612 27.239,-10.686 4.966,-7.072 5.568,-16.704 1.655,-28.894 l -4.665,-14.598 h -55.832 l -0.15,-0.301 c -1.957,-6.019 -1.807,-10.834 0.3,-14.748 2.107,-3.912 6.621,-5.718 13.394,-5.718 5.568,0 10.233,0.452 13.995,1.505 3.763,1.053 8.428,2.709 13.996,4.966 l 2.709,-15.2 c -4.815,-3.01 -10.836,-5.417 -17.908,-7.374 -7.073,-1.956 -14.447,-2.709 -22.274,-2.709" /></g><g
           transform="translate(609.9792,105.3709)"
           id="g60"><path
   id="path62"
   style="fill:#77BC1F;fill-opacity:1;fill-rule:nonzero;stroke:none"
   d="M 0,0 1.655,-3.16 3.16,0 H 5.267 V -7.223 H 4.062 v 6.019 L 2.106,-4.966 H 1.354 l -2.107,3.762 V -7.223 H -2.107 V 0 Z m -3.161,0 v -1.204 h -1.956 v -6.019 h -1.355 v 6.019 H -8.428 V 0 Z" /></g></g></g></g></svg>