<?xml version="1.0" encoding="utf-8"?>
<svg version="1.1" id="victorylogo" xmlns="http://www.w3.org/2000/svg" xmlns:xlink="http://www.w3.org/1999/xlink" x="0px"
	 y="0px" viewBox="0 0 433 306.6" style="enable-background:new 0 0 433 306.6;" xml:space="preserve">
<style type="text/css">
	.st0{fill:#303030;}
	.st1{fill:#0066CC;}
</style>
<path class="st0" d="M89.1,305.3H76v-67.9h13.1V305.3z"/>
<path class="st0" d="M143.7,306.5c-5.8,0-10.9-0.9-15.4-2.7s-8.3-4.3-11.3-7.5c-3.1-3.2-5.4-6.9-7-11.2c-1.6-4.3-2.4-8.9-2.4-13.8
	c0-4.9,0.8-9.4,2.5-13.7c1.6-4.3,4-8,7.1-11.2c3.1-3.2,6.9-5.7,11.4-7.5c4.5-1.8,9.5-2.8,15.1-2.8c2.6,0,5.3,0.2,7.9,0.7
	c2.7,0.5,5.5,1.3,8.5,2.4l-3.4,8.6c-2.7-0.8-5.1-1.4-7-1.7c-1.9-0.3-4-0.5-6.1-0.5c-3.7,0-7,0.7-9.7,2.2c-2.7,1.5-5,3.4-6.8,5.7
	c-1.8,2.4-3.2,5.1-4.1,8.1c-0.9,3.1-1.4,6.2-1.4,9.4c0,3.2,0.5,6.4,1.4,9.4c0.9,3.1,2.3,5.8,4.1,8.2c1.8,2.4,4.1,4.3,6.8,5.7
	c2.7,1.4,6,2.1,9.7,2.1c4.2,0,8.5-1.1,13-3.2l3.5,8.5c-2.8,1.4-5.6,2.5-8.4,3.2C149,306.1,146.4,306.5,143.7,306.5z"/>
<path class="st0" d="M171.1,247v-9.6h48.8v9.6h-17.7v58.3h-13.3V247H171.1z"/>
<path class="st0" d="M263,306.6c-5.4,0-10.2-0.9-14.4-2.7c-4.2-1.8-7.7-4.3-10.6-7.4c-2.9-3.1-5.1-6.9-6.6-11.2
	c-1.5-4.3-2.2-9-2.2-14c0-4.9,0.8-9.4,2.3-13.7c1.5-4.3,3.7-8,6.6-11.3c2.9-3.2,6.4-5.7,10.6-7.6c4.2-1.8,8.9-2.8,14.3-2.8
	c6.1,0,11.3,1.1,15.6,3.2c4.3,2.1,7.8,4.9,10.5,8.3c2.7,3.4,4.7,7.2,5.9,11.4c1.2,4.2,1.8,8.4,1.8,12.5c0,4.6-0.7,9-2.2,13.3
	c-1.5,4.2-3.7,8-6.5,11.3c-2.8,3.3-6.4,5.9-10.6,7.8C273.2,305.7,268.4,306.6,263,306.6z M263,245.6c-3.2,0-6.1,0.7-8.5,2.1
	c-2.4,1.4-4.5,3.2-6.1,5.6c-1.7,2.4-2.9,5.1-3.7,8.2c-0.8,3.1-1.3,6.4-1.3,9.8c0,3.2,0.4,6.4,1.3,9.5c0.8,3.1,2.1,5.8,3.7,8.2
	c1.6,2.4,3.7,4.3,6.1,5.8c2.4,1.5,5.3,2.2,8.5,2.2c2.6,0,5-0.6,7.4-1.7c2.4-1.2,4.5-2.8,6.3-5c1.8-2.2,3.3-4.9,4.3-8
	c1.1-3.2,1.6-6.8,1.6-10.9c0-3.7-0.5-7.1-1.4-10.2c-0.9-3.1-2.2-5.9-3.9-8.1c-1.7-2.3-3.7-4.1-6.2-5.4
	C268.8,246.3,266.1,245.6,263,245.6z"/>
<path class="st0" d="M362.3,256.9c0,3.7-0.8,7-2.5,9.7c-1.7,2.7-3.9,5-6.7,6.6l-2.6,1c0.2,0.1,0.6,0.3,1,0.5c0.4,0.2,0.8,0.4,1,0.6
	c1.9,1.6,3.3,3.5,4.4,5.7c1.1,2.2,2,4.6,2.8,7.2c0.8,2.6,1.6,5.3,2.3,8.2c0.8,2.9,1.9,5.8,3.2,8.8h-13.7c-1.1-2.4-2-4.9-2.7-7.6
	c-0.7-2.7-1.4-5.3-2.1-7.9c-0.7-2.6-1.6-4.9-2.6-7.1c-1-2.2-2.4-4-4.1-5.3c-1.3,0.1-2.7,0.1-4.2,0c-1.5-0.1-3-0.4-4.6-0.9
	c0.4-0.9,0.8-1.8,1.3-2.8c0.5-1,1-1.9,1.7-2.7c0.7-0.8,1.4-1.5,2.2-2.1s1.8-0.9,2.8-1c1.3-0.1,2.5-0.5,3.6-1.1
	c1.1-0.6,2.1-1.4,2.9-2.3c0.8-1,1.5-2.1,2-3.4c0.5-1.3,0.7-2.7,0.7-4.2c0-1.6-0.3-3.1-1-4.5c-0.7-1.4-1.6-2.6-2.8-3.5
	c-1.2-1-2.5-1.8-4.1-2.3s-3.3-0.8-5.1-0.8c-0.9,0-1.6,0-2.2,0c-0.6,0-1.2,0.1-1.7,0.1c-0.6,0-1.2,0.1-1.8,0.2
	c-0.6,0.1-1.3,0.2-2.1,0.2v59h-13.5v-67.1c2.5-0.4,4.7-0.8,6.6-1.1c1.9-0.3,3.7-0.5,5.3-0.7c1.6-0.2,3.1-0.3,4.6-0.3
	c1.5-0.1,3.1-0.1,4.8-0.1c3.7,0,7.1,0.5,10.4,1.4c3.2,0.9,6.1,2.3,8.5,4.1c2.4,1.8,4.3,4,5.7,6.5
	C361.6,250.7,362.3,253.6,362.3,256.9z"/>
<path class="st0" d="M410.4,273.7v31.7h-12.9v-30.1l-23.4-37.8h14.6L410.4,273.7z M418.6,237.4H433l-19.8,32.7
	c-0.6-0.8-1.3-1.9-2-3.1c-0.7-1.3-1.3-2.7-1.8-4.2c-0.5-1.5-0.7-3.1-0.7-4.8c0-1.6,0.4-3.2,1.2-4.7L418.6,237.4z"/>
<path class="st0" d="M26.3,289.1c0,0,0.7-3.9,1.6-7.5l-13.7-44.2H0l23.8,67.9h9.7L26.3,289.1z"/>
<path class="st0" d="M47.5,237.4l-16,51.7l-0.1,0.6c2.4,5,6.9,4.4,6.9,4.4l-3.5,11.2h2.7l23.6-67.9H47.5z"/>
<path class="st1" d="M393.1,61.2c0,0-7.8,8.8-16.6,15.4c-8.8,6.6-19.1,13.4-32.8,13.4c0,0,24.7-14.3,35.8-36.5
	C390.7,31.4,392.2,16.8,393,0c0,0-24.4,31-65.9,49.7C285.6,68.5,283.4,68,283.4,68l-25.2,55.8L240,75c2-0.5,8.2-1.7,14.2-0.3
	c7.2,1.7,10.2,7.3,10.2,7.3c2.7-8.7,1.2-16.5-3.8-22.4c-5-5.9-12.7-7.3-12.7-7.3c0.9-13.6-12.7-20-27.3-20s-19.2,3.1-29.1,3.1
	c-9.9,0-19.2-4.4-19.2-4.4c0.9,10.7,14.6,19.8,14.6,19.8c-7.2,0-10.5-3.7-10.5-3.7c3.4,9.3,12.7,15.6,12.7,15.6
	c-8.5,0.3-11.3-2.4-11.3-2.4c4.7,9,16.2,13.9,16.2,13.9l-18.6,49.7L150.1,68c0,0-2.1,0.5-43.6-18.3C65,31,40.6,0,40.6,0
	c0.8,16.8,2.3,31.4,13.4,53.5C65.2,75.7,89.9,90,89.9,90c-13.7,0-23.9-6.9-32.8-13.4C48.2,70,40.4,61.2,40.4,61.2
	c11.6,55.8,66.4,71.7,66.4,71.7c-24.7,4.3-51.6-19.7-51.6-19.7c1.7,3.4,4.1,23.9,28.8,36.9c24.7,13,19.7,7.2,53.2,18
	c33.6,10.8,52.5,29.4,52.5,29.4s-6.3-19.1-35.7-33.7c-29.4-14.6-54.2-18.2-54.2-18.2s22.9-0.8,36.3-12.8c0,0-43.2-7.2-64.4-35.8
	c0,0,17.8,6.9,45-2c0,0-41.8-15.9-61.6-64.2c0,0,47,37.7,87.3,46.1L175,148l21.4-47.6l-7.3,39.1l27.8-43l27.8,43l-7.3-39.1
	l21.4,47.6l32.5-71.1c40.3-8.4,87.3-46.1,87.3-46.1C358.5,79.2,316.7,95,316.7,95c27.2,8.8,45,2,45,2
	c-21.2,28.7-64.4,35.8-64.4,35.8c13.4,12.1,36.3,12.8,36.3,12.8s-24.7,3.5-54.2,18.2s-35.7,33.7-35.7,33.7s18.9-18.6,52.5-29.4
	c33.6-10.8,28.5-5,53.2-18c24.7-13,27.2-33.6,28.8-36.9c0,0-26.8,23.9-51.6,19.7C326.8,132.9,381.5,117,393.1,61.2z M233.9,51.2
	c-0.5,0.9-2.1,2.4-6.6,2.5c-4.7,0.1-11.1-5.1-14.3-8.1c-0.5-0.5,0-1.3,0.6-1c3.3,1.2,8.5,3.2,11.1,4c3,1,7.1,1.5,8.7,1.7
	C233.9,50.4,234.1,50.9,233.9,51.2z"/>
</svg>
