<?xml version="1.0" encoding="utf-8"?>
<!-- Generator: Adobe Illustrator 23.0.6, SVG Export Plug-In . SVG Version: 6.00 Build 0)  -->
<svg version="1.1" id="icon" xmlns="http://www.w3.org/2000/svg" xmlns:xlink="http://www.w3.org/1999/xlink" x="0px" y="0px"
	 viewBox="0 0 21 21" enable-background="new 0 0 21 21" xml:space="preserve">
<path id="circle" fill="#78BC21" d="M10.5,21C4.7,21,0,16.3,0,10.5S4.7,0,10.5,0S21,4.7,21,10.5S16.3,21,10.5,21z M10.5,1
	C5.3,1,1,5.3,1,10.5S5.3,20,10.5,20s9.5-4.3,9.5-9.5S15.7,1,10.5,1z"/>
<path id="checkmark" fill-rule="evenodd" clip-rule="evenodd" fill="#78BC21" d="M15.3,8.8l-5.4,5.4l-3.3-3.3
	c-0.2-0.2-0.2-0.6,0-0.9c0.2-0.2,0.6-0.2,0.9,0l2.4,2.4l4.5-4.5c0.2-0.2,0.6-0.2,0.9,0C15.5,8.1,15.5,8.5,15.3,8.8 M17.6,3.4
	c-3.9-3.9-10.2-3.9-14.1,0s-3.9,10.2,0,14.1s10.2,3.9,14.1,0S21.5,7.3,17.6,3.4"/>
</svg>
