<?xml version="1.0" encoding="utf-8"?>
<!-- Generator: Adobe Illustrator 23.0.6, SVG Export Plug-In . SVG Version: 6.00 Build 0)  -->
<svg version="1.1" id="icon" xmlns="http://www.w3.org/2000/svg" xmlns:xlink="http://www.w3.org/1999/xlink" x="0px" y="0px"
	 viewBox="0 0 18 18" enable-background="new 0 0 18 18" xml:space="preserve">
<path id="close" fill-rule="evenodd" clip-rule="evenodd" fill="#4A4A4A" d="M11.6,12.4L9,9.7l-2.6,2.6c-0.2,0.2-0.5,0.2-0.7,0
	s-0.2-0.5,0-0.7l0,0L8.3,9L5.6,6.4c-0.2-0.2-0.2-0.5,0-0.7s0.5-0.2,0.7,0l0,0L9,8.3l2.6-2.6c0.2-0.2,0.5-0.2,0.7,0s0.2,0.5,0,0.7
	l0,0L9.7,9l2.6,2.6c0.2,0.2,0.2,0.5,0,0.7S11.8,12.6,11.6,12.4L11.6,12.4 M15.4,2.6c-3.5-3.5-9.2-3.5-12.7,0s-3.5,9.2,0,12.7
	s9.2,3.5,12.7,0S18.9,6.2,15.4,2.6"/>
</svg>
