<?xml version="1.0" encoding="utf-8"?>
<!-- Generator: Adobe Illustrator 23.0.6, SVG Export Plug-In . SVG Version: 6.00 Build 0)  -->
<svg version="1.1" id="icon" xmlns="http://www.w3.org/2000/svg" xmlns:xlink="http://www.w3.org/1999/xlink" x="0px" y="0px"
	 viewBox="0 0 60 60" enable-background="new 0 0 60 60" xml:space="preserve">
<path id="circle" fill-rule="evenodd" clip-rule="evenodd" fill="#78BB43" d="M30,0c16.6,0,30,13.4,30,30S46.6,60,30,60S0,46.6,0,30
	S13.4,0,30,0"/>
<path id="cms" fill="#FEFEFE" d="M46.6,20l-5.4-5.4l-9.9,9.9l-9.9-9.9l-6.8,6.8l9.8,9.9l-5.5,5.5l-4.3,9.7l9.7-4.3l5.5-5.5l9.7,9.8
	l6.9-6.9l-9.8-9.8L46.6,20z M41.2,17.4l2.6,2.6L42,21.7l-2.6-2.6L41.2,17.4z M23.9,28l2.3-2.3l0,0l-1.4-1.4l-2.3,2.3l-1.7-1.8
	l1.5-1.5l-1.4-1.4l-1.5,1.5l-2-2l4-4l8.5,8.5l-4,4L23.9,28z M18.5,42.7l1.6-3.5l2,2L18.5,42.7z M23.7,40l-2.6-2.6l5.4-5.4l0,0l0,0
	l5.4-5.4l0,0l0,0l6.1-6l2.6,2.6L29.1,34.6l0,0l0,0L23.7,40z M43.6,39.7l-4.1,4.1l-1.9-1.9l2.1-2.1l-1.4-1.4l-2.1,2.1l-1.6-1.6
	l1.5-1.5L34.7,36l-1.5,1.5l-2.1-2.1l4-4L43.6,39.7z"/>
</svg>
