<?xml version="1.0" encoding="utf-8"?>
<!-- Generator: Adobe Illustrator 23.0.6, SVG Export Plug-In . SVG Version: 6.00 Build 0)  -->
<svg version="1.1" id="icon" xmlns="http://www.w3.org/2000/svg" xmlns:xlink="http://www.w3.org/1999/xlink" x="0px" y="0px"
	 viewBox="0 0 64 64" enable-background="new 0 0 64 64" xml:space="preserve">
<path id="border" fill="#CCCCCC" d="M62,14H50V2c0-1.1-0.9-2-2-2H2C0.9,0,0,0.9,0,2v46c0,1.1,0.9,2,2,2h12v12c0,1.1,0.9,2,2,2h46
	c1.1,0,2-0.9,2-2V16C64,14.9,63.1,14,62,14z M14,16v30H4V4h42v10H16C14.9,14,14,14.9,14,16z M60,60H18V18h42V60z"/>
<polygon id="plus" fill="#CCCCCC" points="52,37 41,37 41,26 37,26 37,37 26,37 26,41 37,41 37,52 41,52 41,41 52,41 "/>
</svg>
