<?xml version="1.0" encoding="utf-8"?>
<!-- Generator: Adobe Illustrator 23.0.6, SVG Export Plug-In . SVG Version: 6.00 Build 0)  -->
<svg version="1.1" id="icon" xmlns="http://www.w3.org/2000/svg" xmlns:xlink="http://www.w3.org/1999/xlink" x="0px" y="0px"
	 viewBox="0 0 22 19" enable-background="new 0 0 22 19" xml:space="preserve">
<path id="customer_segment" fill="#4A4A4A" d="M22,16.5c0-0.9-0.6-2.7-3-3.2c-2-0.4-2-1.1-2-1.6l0,0c0.8,0,2.3-0.2,3.7-0.5l0.8-0.2
	l-0.6-0.6c-0.1-0.1-0.2-0.2-0.3-0.3c-0.9-1-1.6-1.7-1.6-5.6c0-1.8-0.5-3.1-1.5-3.8c-1.5-1.1-3.7-0.6-4.1-0.4c-1.4,0-2.4,0.7-3,2
	C8.9,1.8,7.2,2,5.7,3c-0.5,0-1,0.3-1.3,0.7C3.7,4.6,3.5,6,3.8,7.6C3.5,8,3.5,8.8,3.5,9.1c0,0.4,0.2,2,1.1,2.4
	c0.3,0.7,0.8,1.4,1.5,2.1v0.1c0,0.7-0.9,1.2-2.5,1.4C0,15.5,0,18.5,0,18.5V19h16v-0.5c0-0.4-0.1-1-0.4-1.5H22V16.5z M1.1,18
	c0.2-0.6,0.8-1.7,2.6-1.9C6,15.8,7.1,15,7.1,13.7v-0.5L7,13c-0.8-0.7-1.3-1.4-1.5-2.1l-0.1-0.4H5c-0.2,0-0.5-1-0.5-1.4
	c0-0.3,0.1-0.6,0.1-0.8H5L4.9,7.7C4.5,6.3,4.6,5,5.1,4.4C5.3,4.1,5.5,4,5.8,4H6l0.1-0.1c1.6-1.1,3.4-1.2,4.6-0.4
	c1.1,0.8,1.4,2.3,0.9,4.1L11.4,8l0.5,0.1c0,0.2,0.1,0.7,0.1,1c0,0.4-0.3,1.4-0.5,1.4l-0.4-0.1L11,10.9c-0.2,0.9-0.7,1.6-1.3,2.1
	l-0.2,0.1v0.6c0,1,0.4,2,3.2,2.4c1.6,0.2,2.1,1.3,2.2,1.9H1.1z M14.9,16c-0.5-0.5-1.1-0.8-2.1-0.9c-2.3-0.3-2.3-1-2.3-1.4v-0.1
	c0.6-0.6,1-1.3,1.3-2.1c0.9-0.3,1.2-1.9,1.2-2.4c0-0.2,0-1-0.4-1.4c0.5-2.1,0-3.9-1.3-4.9c0,0-0.1,0-0.1-0.1c0.4-1,1.1-1.4,2.2-1.4
	h0.2c0,0,2-0.7,3.3,0.3C17.6,2,18,3,18,4.5c0,3.8,0.7,5,1.5,5.9c-1.4,0.3-2.8,0.3-3.1,0.3h-0.5v1.1c0,0.9,0.3,2,2.8,2.6
	c1.5,0.3,2,1.1,2.2,1.7h-6V16z"/>
</svg>
