<?xml version="1.0" encoding="utf-8"?>
<!-- Generator: Adobe Illustrator 23.0.6, SVG Export Plug-In . SVG Version: 6.00 Build 0)  -->
<svg version="1.1" id="icon" xmlns="http://www.w3.org/2000/svg" xmlns:xlink="http://www.w3.org/1999/xlink" x="0px" y="0px"
	 viewBox="0 0 22 22" enable-background="new 0 0 22 22" xml:space="preserve">
<path id="bug" fill="#CCCCCC" d="M21,12.7h-3c0-1.4-0.3-2.6-0.8-3.8c0.8-0.8,1.6-1.7,2-2.8c0.2-0.5,0-1.1-0.5-1.3s-1.1,0-1.3,0.5
	c-0.3,0.7-0.7,1.3-1.2,1.8c-0.5-0.8-1.2-1.4-1.9-2l2.2-3.6c0.3-0.5,0.1-1.1-0.3-1.4c-0.5-0.3-1.1-0.1-1.4,0.3l-2.3,3.8
	C12.1,4.1,11.5,4,11,4s-1,0.1-1.5,0.2L7.2,0.6C6.9,0.1,6.3,0,5.8,0.2C5.3,0.5,5.2,1.1,5.5,1.6l2.2,3.6C7,5.6,6.3,6.3,5.8,7.1
	C5.3,6.5,4.9,5.9,4.6,5.3C4.4,4.8,3.8,4.5,3.3,4.7C2.8,5,2.5,5.5,2.7,6.1c0.5,1.1,1.2,2.1,2,2.9C4.3,10,4,11.3,4,12.7H1
	c-0.6,0-1,0.4-1,1s0.4,1,1,1h3.1c0.2,1.1,0.5,2.1,0.9,3c-1.5,1-2.2,2.9-2.3,3c-0.2,0.5,0.1,1.1,0.6,1.3c0.1,0,0.3,0,0.4,0
	c0.4,0,0.8-0.3,0.9-0.7c0.2-0.5,0.7-1.5,1.4-2C7.3,21,9.1,22,11,22l0,0l0,0l0,0c1.9,0,3.7-1,4.9-2.6c0.7,0.5,1.3,1.5,1.4,2
	c0.1,0.4,0.5,0.7,0.9,0.7c0.1,0,0.2,0,0.3-0.1c0.5-0.2,0.8-0.8,0.6-1.3c0-0.1-0.7-2-2.3-3c0.4-0.9,0.7-1.9,0.9-3H21c0.6,0,1-0.4,1-1
	S21.6,12.7,21,12.7z M11,6c1.5,0,2.8,0.9,3.7,2.3c-1.1,0.6-2.4,1-3.7,1c-1.4,0-2.6-0.4-3.7-1C8.2,6.9,9.5,6,11,6z M7.2,17.5
	L7.2,17.5C6.4,16.3,6,14.7,6,13c0-1,0.2-2,0.4-2.9c1.1,0.6,2.3,1,3.6,1.1v8.5C8.9,19.4,7.9,18.6,7.2,17.5z M12,19.8v-8.5
	c1.3-0.1,2.5-0.5,3.5-1.1C15.8,11,16,12,16,13C16,16.4,14.3,19.1,12,19.8z"/>
</svg>
