<?xml version="1.0" encoding="utf-8"?>
<!-- Generator: Adobe Illustrator 23.0.6, SVG Export Plug-In . SVG Version: 6.00 Build 0)  -->
<svg version="1.1" id="icon" xmlns="http://www.w3.org/2000/svg" xmlns:xlink="http://www.w3.org/1999/xlink" x="0px" y="0px"
	 viewBox="0 0 23 19" enable-background="new 0 0 23 19" xml:space="preserve">
<path id="outline" opacity="0.5" fill="#D8D8D8" enable-background="new    " d="M3,17c0,1.1,0.9,2,2,2h16c1.1,0,2-0.9,2-2V5
	c0-1.1-0.9-2-2-2v12c0,1.1-0.9,2-2,2H3z"/>
<path id="page_1_" fill="#D8D8D8" d="M6,0L0,6v8c0,1.1,0.9,2,2,2h16c1.1,0,2-0.9,2-2V2c0-1.1-0.9-2-2-2H6z"/>
<path id="curl" fill-opacity="0.2" d="M0,6h4c1.1,0,2-0.9,2-2V0L0,6z"/>
</svg>
