<?xml version="1.0" encoding="utf-8"?>
<!-- Generator: Adobe Illustrator 23.0.6, SVG Export Plug-In . SVG Version: 6.00 Build 0)  -->
<svg version="1.1" id="icon" xmlns="http://www.w3.org/2000/svg" xmlns:xlink="http://www.w3.org/1999/xlink" x="0px" y="0px"
	 viewBox="0 0 20 16" enable-background="new 0 0 20 16" xml:space="preserve">
<path id="page" fill="#D8D8D8" d="M6,0L0,6v8c0,1.1,0.9,2,2,2h16c1.1,0,2-0.9,2-2V2c0-1.1-0.9-2-2-2H6z"/>
<defs>
	<filter id="Adobe_OpacityMaskFilter" filterUnits="userSpaceOnUse" x="0" y="0" width="6" height="6">
		<feColorMatrix  type="matrix" values="1 0 0 0 0  0 1 0 0 0  0 0 1 0 0  0 0 0 1 0"/>
	</filter>
</defs>
<mask maskUnits="userSpaceOnUse" x="0" y="0" width="6" height="6" id="b_1_">
	<g filter="url(#Adobe_OpacityMaskFilter)">
		<path id="a_1_" fill-rule="evenodd" clip-rule="evenodd" fill="#FFFFFF" d="M6,0L0,6v8c0,1.1,0.9,2,2,2h16c1.1,0,2-0.9,2-2V2
			c0-1.1-0.9-2-2-2H6z"/>
	</g>
</mask>
<path id="curl" mask="url(#b_1_)" fill-opacity="0.2" d="M0,6h4c1.1,0,2-0.9,2-2V0L0,6z"/>
</svg>
