<?xml version="1.0" encoding="utf-8"?>
<!-- Generator: Adobe Illustrator 23.0.6, SVG Export Plug-In . SVG Version: 6.00 Build 0)  -->
<svg version="1.1" id="icon" xmlns="http://www.w3.org/2000/svg" xmlns:xlink="http://www.w3.org/1999/xlink" x="0px" y="0px"
	 viewBox="0 0 17.3 17.3" enable-background="new 0 0 17.3 17.3" xml:space="preserve">
<path id="pencil" fill="#9B9B9B" d="M16.3,1L16.3,1c-1.3-1.3-3-1.4-4.1-0.3L1.3,11.6L0,17.3L5.7,16L16.5,5.1C17.7,4,17.5,2.3,16.3,1
	z M15.5,1.8C16,2.4,16.5,3.3,16,4l-2.7-2.7C14,0.8,14.9,1.3,15.5,1.8z M15.2,4.9l-0.5,0.5L12,2.6l0.5-0.5L15.2,4.9z M2,13.6l1.7,1.7
	l-2.2,0.5L2,13.6z M5.1,15L5.1,15l-2.8-2.7v-0.1l8.8-8.8l2.8,2.8L5.1,15z"/>
</svg>
