<?xml version="1.0" encoding="utf-8"?>
<!-- Generator: Adobe Illustrator 23.0.6, SVG Export Plug-In . SVG Version: 6.00 Build 0)  -->
<svg version="1.1" id="icon" xmlns="http://www.w3.org/2000/svg" xmlns:xlink="http://www.w3.org/1999/xlink" x="0px" y="0px"
	 viewBox="0 0 15.5 15.5" enable-background="new 0 0 15.5 15.5" xml:space="preserve">
<path id="arrow_1_" fill="#9B9B9B" d="M10.7,0C10.3,0,10,0.3,10,0.8s0.3,0.8,0.8,0.8H13L8.5,5.9C8.2,6.2,8.2,6.7,8.5,7
	C8.6,7.1,8.8,7.2,9,7.2S9.4,7.1,9.5,7L14,2.6v2.2c0,0.4,0.3,0.8,0.8,0.8s0.8-0.3,0.8-0.8V0H10.7z"/>
<path id="arrow" fill="#9B9B9B" d="M6.9,8.6c-0.3-0.3-0.8-0.3-1.1,0L1.4,13v-2.2c0-0.4-0.3-0.8-0.8-0.8S0,10.3,0,10.7v4.8h4.8
	c0.4,0,0.8-0.3,0.8-0.8S5.2,14,4.8,14H2.6L7,9.6C7.2,9.3,7.2,8.8,6.9,8.6z"/>
</svg>
