<?xml version="1.0" encoding="utf-8"?>
<!-- Generator: Adobe Illustrator 23.0.6, SVG Export Plug-In . SVG Version: 6.00 Build 0)  -->
<svg version="1.1" id="icon" xmlns="http://www.w3.org/2000/svg" xmlns:xlink="http://www.w3.org/1999/xlink" x="0px" y="0px"
	 viewBox="0 0 20 19" enable-background="new 0 0 20 19" xml:space="preserve">
<path id="tube" fill-rule="evenodd" clip-rule="evenodd" fill="#5B9016" d="M14.1,7.2l-8.9,8.9C4.4,17,3,17,2.1,16.1s-0.9-2.3,0-3.1
	l5.8-5.8l0,0l4.3-4.3L15.3,6L14.1,7.2z M11.4,0c-0.3,0.3-0.1,1.7-0.6,2.1c-0.2,0.2-0.5,0.5-0.7,0.7l0,0L10,2.9l-8.9,8.9
	c-1.4,1.4-1.4,3.8,0,5.2s3.8,1.4,5.2,0l0,0l8.9-8.9L15.3,8l0,0c0.3-0.3,0.6-0.6,0.7-0.7c0.4-0.4,1.7-0.3,2.1-0.5l0,0L11.4,0z"/>
<path id="liquid" fill-rule="evenodd" clip-rule="evenodd" fill="#78BC21" d="M8.3,7.2L2.5,13c-0.6,0.6-1.2,1.6-0.8,2.5
	c0.1,0.2,0.2,0.4,0.4,0.6C3,17,4.4,17,5.2,16.1l8.9-8.9L8.3,7.2L8.3,7.2z M7,9.4C7,9,7.3,8.7,7.7,8.7S8.4,9,8.4,9.4S8,10.1,7.6,10.1
	C7.3,10.1,7,9.8,7,9.4L7,9.4z M6.2,10.9c0-0.2,0.2-0.4,0.4-0.4c0.2,0,0.4,0.2,0.4,0.4s-0.2,0.4-0.4,0.4C6.4,11.2,6.2,11.1,6.2,10.9z
	 M8.1,11.2c0-0.2,0.2-0.4,0.4-0.4s0.4,0.2,0.4,0.4s-0.2,0.4-0.4,0.4C8.2,11.6,8.1,11.4,8.1,11.2z M4.8,12.7c0-0.4,0.3-0.7,0.7-0.8
	c0.4,0,0.7,0.3,0.8,0.7c0,0,0,0,0,0.1c0,0.4-0.3,0.7-0.7,0.7C5.1,13.4,4.8,13.1,4.8,12.7L4.8,12.7z M4.4,14.5c0-0.2,0.1-0.4,0.3-0.4
	c0.2,0,0.4,0.1,0.4,0.3l0,0c0,0.2-0.2,0.4-0.4,0.3C4.6,14.9,4.4,14.7,4.4,14.5z"/>
</svg>
