<?xml version="1.0" encoding="utf-8"?>
<!-- Generator: Adobe Illustrator 23.0.6, SVG Export Plug-In . SVG Version: 6.00 Build 0)  -->
<svg version="1.1" id="icon" xmlns="http://www.w3.org/2000/svg" xmlns:xlink="http://www.w3.org/1999/xlink" x="0px" y="0px"
	 viewBox="0 0 18 13" enable-background="new 0 0 18 13" xml:space="preserve">
<path id="bar_bottom_1_" fill-rule="evenodd" clip-rule="evenodd" fill="#9B9B9B" d="M5,10h8c0.6,0,1,0.4,1,1v1c0,0.6-0.4,1-1,1H5
	c-0.6,0-1-0.4-1-1v-1C4,10.4,4.4,10,5,10z"/>
<path id="bar_middle" fill-rule="evenodd" clip-rule="evenodd" fill="#9B9B9B" d="M3,5h12c0.6,0,1,0.4,1,1v1c0,0.6-0.4,1-1,1H3
	C2.4,8,2,7.6,2,7V6C2,5.4,2.4,5,3,5z"/>
<path id="bar_top" fill-rule="evenodd" clip-rule="evenodd" fill="#9B9B9B" d="M1,0h16c0.6,0,1,0.4,1,1v1c0,0.6-0.4,1-1,1H1
	C0.4,3,0,2.6,0,2V1C0,0.4,0.4,0,1,0z"/>
</svg>
