<?xml version="1.0" encoding="utf-8"?>
<!-- Generator: Adobe Illustrator 23.0.6, SVG Export Plug-In . SVG Version: 6.00 Build 0)  -->
<svg version="1.1" id="icon" xmlns="http://www.w3.org/2000/svg" xmlns:xlink="http://www.w3.org/1999/xlink" x="0px" y="0px"
	 viewBox="0 0 23.1 18" enable-background="new 0 0 23.1 18" xml:space="preserve">
<path id="folder" fill="#999999" d="M10.3,2H18c1.1,0,2,0.9,2,2v12c0,1.1-0.9,2-2,2H2c-1.1,0-2-0.9-2-2V2c0-1.1,0.9-2,2-2h6.2
	c0.9,0,1.7,0.6,1.9,1.4L10.3,2z"/>
<path id="page" fill="#F4F4F4" d="M3.1,3h14c1.1,0,2,0.9,2,2v11c0,1.1-0.9,2-2,2h-14c-1.1,0-2-0.9-2-2V5C1.1,3.9,1.9,3,3.1,3z"/>
<path id="cover" fill="#D8D8D8" d="M4.6,5h16c1.1,0,2,0.9,2,2c0,0.2,0,0.3-0.1,0.5l-2.1,9c-0.2,0.9-1,1.6-1.9,1.5H2
	c-1.1,0-2-0.9-2-2c0-0.2,0-0.4,0.1-0.5l2.6-9C2.9,5.6,3.7,5,4.6,5z"/>
</svg>
