<?xml version="1.0" encoding="utf-8"?>
<!-- Generator: Adobe Illustrator 23.0.6, SVG Export Plug-In . SVG Version: 6.00 Build 0)  -->
<svg version="1.1" id="icon" xmlns="http://www.w3.org/2000/svg" xmlns:xlink="http://www.w3.org/1999/xlink" x="0px" y="0px"
	 viewBox="0 0 20 18" enable-background="new 0 0 20 18" xml:space="preserve">
<defs>
	<filter id="Adobe_OpacityMaskFilter" filterUnits="userSpaceOnUse" x="0" y="2" width="20" height="16">
		<feColorMatrix  type="matrix" values="1 0 0 0 0  0 1 0 0 0  0 0 1 0 0  0 0 0 1 0"/>
	</filter>
</defs>
<mask maskUnits="userSpaceOnUse" x="0" y="2" width="20" height="16" id="d_2_">
	<g filter="url(#Adobe_OpacityMaskFilter)">
		<path id="c_2_" fill-rule="evenodd" clip-rule="evenodd" fill="#FFFFFF" d="M2,2h16c1.1,0,2,0.9,2,2v12c0,1.1-0.9,2-2,2H2
			c-1.1,0-2-0.9-2-2V4C0,2.9,0.9,2,2,2z"/>
	</g>
</mask>
<g id="folder" mask="url(#d_2_)">
	<path id="folder_1_" fill="#D8D8D8" d="M0,2h20v16H0V2z"/>
</g>
<path id="tab" fill="#999999" d="M10.1,1.4C9.8,0.6,9.1,0,8.2,0H2C0.9,0,0,0.9,0,2v2c0-1.1,0.9-2,2-2h8.3L10.1,1.4z"/>
</svg>
