<?xml version="1.0" encoding="utf-8"?>
<!-- Generator: Adobe Illustrator 23.0.6, SVG Export Plug-In . SVG Version: 6.00 Build 0)  -->
<svg version="1.1" id="icon" xmlns="http://www.w3.org/2000/svg" xmlns:xlink="http://www.w3.org/1999/xlink" x="0px" y="0px"
	 viewBox="0 0 20 20" enable-background="new 0 0 20 20" xml:space="preserve">
<path id="gray_box" fill="#4A4A4A" d="M17.9,16.2H2.1c-1.2,0-2.1-0.9-2.1-2.1v-12C0,0.9,0.9,0,2.1,0h15.8C19.1,0,20,0.9,20,2.1v12
	C20,15.3,19.1,16.2,17.9,16.2z"/>
<path id="white_box" fill="#FFFFFF" d="M17.7,0.2H6.2l0,0L11.9,16h5.8c1.1,0,2-0.9,2-2V2.2C19.7,1.1,18.8,0.2,17.7,0.2z"/>
<path id="arrow" fill="#4A4A4A" d="M8.9,16.1l2.8,2.8c0.8,0.8,2,0.8,2.8,0l2.8-2.8l0,0H8.9z"/>
<path id="Chinese" fill="#4A4A4A" d="M18.3,6V5h-3.2V3.8h-1V5h-3.2v1h5c-0.6,1.1-1.2,2-1.8,2.7c-0.4-0.4-0.9-0.9-1.3-1.4L12,8
	c0.5,0.5,1,1,1.4,1.5c-0.7,0.6-1.4,1-2.1,1v1c1,0,2-0.5,2.9-1.4c1.2,0.9,2.4,1.4,3.7,1.4v-1c-1,0-2-0.4-3-1.1c0.7-0.8,1.4-2,2.1-3.3
	L18.3,6L18.3,6z"/>
<path id="A" fill="#FFFFFF" d="M6.6,10.5H4.1L3.6,12H2l2.6-7.1H6L8.7,12H7.1L6.6,10.5z M4.5,9.3h1.8L5.4,6.7L4.5,9.3z"/>
</svg>
