<?xml version="1.0" encoding="utf-8"?>
<!-- Generator: Adobe Illustrator 23.1.1, SVG Export Plug-In . SVG Version: 6.00 Build 0)  -->
<svg version="1.1" id="icon" xmlns="http://www.w3.org/2000/svg" xmlns:xlink="http://www.w3.org/1999/xlink" x="0px" y="0px"
	 viewBox="0 0 17 17" enable-background="new 0 0 17 17" xml:space="preserve">
<path id="image" fill="#4A4A4A" d="M14.4,0H2.5C1.1,0,0,1.1,0,2.5v11.9C0,15.9,1.1,17,2.5,17h11.9c1.4,0,2.6-1.1,2.6-2.6V2.5
	C17,1.1,15.9,0,14.4,0z M1.7,2.5C1.7,2,2,1.7,2.5,1.7h11.9c0.5,0,0.9,0.3,0.9,0.8V9l-2.8-2.8c-0.3-0.3-0.9-0.3-1.2,0l-9,9
	c-0.3-0.1-0.6-0.4-0.6-0.8V2.5z M14.4,15.3H4.6L11.9,8l3.4,3.4v3.1C15.3,15,15,15.3,14.4,15.3z M5.5,7.7c1.2,0,2.1-0.9,2.1-2.1
	S6.7,3.4,5.5,3.4S3.4,4.3,3.4,5.5S4.3,7.7,5.5,7.7z M5.5,5.1c0.3,0,0.4,0.2,0.4,0.4c0,0.3-0.2,0.4-0.4,0.4c-0.3,0-0.4-0.2-0.4-0.4
	C5.1,5.3,5.3,5.1,5.5,5.1z"/>
</svg>
