<?xml version="1.0" encoding="utf-8"?>
<!-- Generator: Adobe Illustrator 23.0.6, SVG Export Plug-In . SVG Version: 6.00 Build 0)  -->
<svg version="1.1" id="icon" xmlns="http://www.w3.org/2000/svg" xmlns:xlink="http://www.w3.org/1999/xlink" x="0px" y="0px"
	 viewBox="0 0 21 21" enable-background="new 0 0 21 21" xml:space="preserve">
<defs>
	<filter id="Adobe_OpacityMaskFilter" filterUnits="userSpaceOnUse" x="-4.9" y="18.9" width="30.2" height="1.6">
		<feColorMatrix  type="matrix" values="1 0 0 0 0  0 1 0 0 0  0 0 1 0 0  0 0 0 1 0"/>
	</filter>
</defs>
<mask maskUnits="userSpaceOnUse" x="-4.9" y="18.9" width="30.2" height="1.6" id="b_1_">
	<g filter="url(#Adobe_OpacityMaskFilter)">
		<path id="a_1_" fill-rule="evenodd" clip-rule="evenodd" fill="#FFFFFF" d="M10.3,0.1C4.7,0.1,0.2,4.7,0.2,10.3
			s4.5,10.2,10.1,10.2s10.1-4.6,10.1-10.2S15.8,0.1,10.3,0.1L10.3,0.1z"/>
	</g>
</mask>
<path id="stripe_red_07" mask="url(#b_1_)" fill-rule="evenodd" clip-rule="evenodd" fill="#E4171E" d="M-4.9,20.5h30.2v-1.6H-4.9
	V20.5z"/>
<defs>
	<filter id="Adobe_OpacityMaskFilter_1_" filterUnits="userSpaceOnUse" x="-4.9" y="17.3" width="30.2" height="1.6">
		<feColorMatrix  type="matrix" values="1 0 0 0 0  0 1 0 0 0  0 0 1 0 0  0 0 0 1 0"/>
	</filter>
</defs>
<mask maskUnits="userSpaceOnUse" x="-4.9" y="17.3" width="30.2" height="1.6" id="stripe_white_06_2_">
	<g filter="url(#Adobe_OpacityMaskFilter_1_)">
		<path fill-rule="evenodd" clip-rule="evenodd" fill="#FFFFFF" d="M10.3,0.1C4.7,0.1,0.2,4.7,0.2,10.3s4.5,10.2,10.1,10.2
			s10.1-4.6,10.1-10.2S15.8,0.1,10.3,0.1L10.3,0.1z"/>
	</g>
</mask>
<path id="stripe_white_06" mask="url(#stripe_white_06_2_)" fill-rule="evenodd" clip-rule="evenodd" fill="#FCFCFC" d="M-4.9,18.9
	h30.2v-1.6H-4.9V18.9z"/>
<defs>
	<filter id="Adobe_OpacityMaskFilter_2_" filterUnits="userSpaceOnUse" x="-4.9" y="15.8" width="30.2" height="1.6">
		<feColorMatrix  type="matrix" values="1 0 0 0 0  0 1 0 0 0  0 0 1 0 0  0 0 0 1 0"/>
	</filter>
</defs>
<mask maskUnits="userSpaceOnUse" x="-4.9" y="15.8" width="30.2" height="1.6" id="b_3_">
	<g filter="url(#Adobe_OpacityMaskFilter_2_)">
		<path id="a_3_" fill-rule="evenodd" clip-rule="evenodd" fill="#FFFFFF" d="M10.3,0.1C4.7,0.1,0.2,4.7,0.2,10.3
			s4.5,10.2,10.1,10.2s10.1-4.6,10.1-10.2S15.8,0.1,10.3,0.1L10.3,0.1z"/>
	</g>
</mask>
<path id="stripe_red_06" mask="url(#b_3_)" fill-rule="evenodd" clip-rule="evenodd" fill="#E4171E" d="M-4.9,17.4h30.2v-1.6H-4.9
	V17.4z"/>
<defs>
	<filter id="Adobe_OpacityMaskFilter_3_" filterUnits="userSpaceOnUse" x="-4.9" y="14.2" width="30.2" height="1.6">
		<feColorMatrix  type="matrix" values="1 0 0 0 0  0 1 0 0 0  0 0 1 0 0  0 0 0 1 0"/>
	</filter>
</defs>
<mask maskUnits="userSpaceOnUse" x="-4.9" y="14.2" width="30.2" height="1.6" id="stripe_white_05_2_">
	<g filter="url(#Adobe_OpacityMaskFilter_3_)">
		<path fill-rule="evenodd" clip-rule="evenodd" fill="#FFFFFF" d="M10.3,0.1C4.7,0.1,0.2,4.7,0.2,10.3s4.5,10.2,10.1,10.2
			s10.1-4.6,10.1-10.2S15.8,0.1,10.3,0.1L10.3,0.1z"/>
	</g>
</mask>
<path id="stripe_white_05" mask="url(#stripe_white_05_2_)" fill-rule="evenodd" clip-rule="evenodd" fill="#FCFCFC" d="M-4.9,15.8
	h30.2v-1.6H-4.9V15.8z"/>
<defs>
	<filter id="Adobe_OpacityMaskFilter_4_" filterUnits="userSpaceOnUse" x="-4.9" y="12.6" width="30.2" height="1.6">
		<feColorMatrix  type="matrix" values="1 0 0 0 0  0 1 0 0 0  0 0 1 0 0  0 0 0 1 0"/>
	</filter>
</defs>
<mask maskUnits="userSpaceOnUse" x="-4.9" y="12.6" width="30.2" height="1.6" id="b_5_">
	<g filter="url(#Adobe_OpacityMaskFilter_4_)">
		<path id="a_5_" fill-rule="evenodd" clip-rule="evenodd" fill="#FFFFFF" d="M10.3,0.1C4.7,0.1,0.2,4.7,0.2,10.3
			s4.5,10.2,10.1,10.2s10.1-4.6,10.1-10.2S15.8,0.1,10.3,0.1L10.3,0.1z"/>
	</g>
</mask>
<path id="stripe_red_05" mask="url(#b_5_)" fill-rule="evenodd" clip-rule="evenodd" fill="#E4171E" d="M-4.9,14.2h30.2v-1.6H-4.9
	V14.2z"/>
<defs>
	<filter id="Adobe_OpacityMaskFilter_5_" filterUnits="userSpaceOnUse" x="-4.9" y="11.1" width="30.2" height="1.6">
		<feColorMatrix  type="matrix" values="1 0 0 0 0  0 1 0 0 0  0 0 1 0 0  0 0 0 1 0"/>
	</filter>
</defs>
<mask maskUnits="userSpaceOnUse" x="-4.9" y="11.1" width="30.2" height="1.6" id="stripe_white_04_2_">
	<g filter="url(#Adobe_OpacityMaskFilter_5_)">
		<path fill-rule="evenodd" clip-rule="evenodd" fill="#FFFFFF" d="M10.3,0.1C4.7,0.1,0.2,4.7,0.2,10.3s4.5,10.2,10.1,10.2
			s10.1-4.6,10.1-10.2S15.8,0.1,10.3,0.1L10.3,0.1z"/>
	</g>
</mask>
<path id="stripe_white_04" mask="url(#stripe_white_04_2_)" fill-rule="evenodd" clip-rule="evenodd" fill="#FCFCFC" d="M-4.9,12.7
	h30.2v-1.6H-4.9V12.7z"/>
<defs>
	<filter id="Adobe_OpacityMaskFilter_6_" filterUnits="userSpaceOnUse" x="-4.9" y="9.5" width="30.2" height="1.6">
		<feColorMatrix  type="matrix" values="1 0 0 0 0  0 1 0 0 0  0 0 1 0 0  0 0 0 1 0"/>
	</filter>
</defs>
<mask maskUnits="userSpaceOnUse" x="-4.9" y="9.5" width="30.2" height="1.6" id="b_7_">
	<g filter="url(#Adobe_OpacityMaskFilter_6_)">
		<path id="a_7_" fill-rule="evenodd" clip-rule="evenodd" fill="#FFFFFF" d="M10.3,0.1C4.7,0.1,0.2,4.7,0.2,10.3
			s4.5,10.2,10.1,10.2s10.1-4.6,10.1-10.2S15.8,0.1,10.3,0.1L10.3,0.1z"/>
	</g>
</mask>
<path id="stripe_red_04" mask="url(#b_7_)" fill-rule="evenodd" clip-rule="evenodd" fill="#E4171E" d="M-4.9,11.1h30.2V9.5H-4.9
	V11.1z"/>
<defs>
	<filter id="Adobe_OpacityMaskFilter_7_" filterUnits="userSpaceOnUse" x="-4.9" y="8" width="30.2" height="1.5">
		<feColorMatrix  type="matrix" values="1 0 0 0 0  0 1 0 0 0  0 0 1 0 0  0 0 0 1 0"/>
	</filter>
</defs>
<mask maskUnits="userSpaceOnUse" x="-4.9" y="8" width="30.2" height="1.5" id="stripe_white_03_2_">
	<g filter="url(#Adobe_OpacityMaskFilter_7_)">
		<path fill-rule="evenodd" clip-rule="evenodd" fill="#FFFFFF" d="M10.3,0.1C4.7,0.1,0.2,4.7,0.2,10.3s4.5,10.2,10.1,10.2
			s10.1-4.6,10.1-10.2S15.8,0.1,10.3,0.1L10.3,0.1z"/>
	</g>
</mask>
<path id="stripe_white_03" mask="url(#stripe_white_03_2_)" fill-rule="evenodd" clip-rule="evenodd" fill="#FCFCFC" d="M-4.9,9.5
	h30.2V8H-4.9V9.5z"/>
<defs>
	<filter id="Adobe_OpacityMaskFilter_8_" filterUnits="userSpaceOnUse" x="-4.9" y="6.4" width="30.2" height="1.6">
		<feColorMatrix  type="matrix" values="1 0 0 0 0  0 1 0 0 0  0 0 1 0 0  0 0 0 1 0"/>
	</filter>
</defs>
<mask maskUnits="userSpaceOnUse" x="-4.9" y="6.4" width="30.2" height="1.6" id="b_9_">
	<g filter="url(#Adobe_OpacityMaskFilter_8_)">
		<path id="a_9_" fill-rule="evenodd" clip-rule="evenodd" fill="#FFFFFF" d="M10.3,0.1C4.7,0.1,0.2,4.7,0.2,10.3
			s4.5,10.2,10.1,10.2s10.1-4.6,10.1-10.2S15.8,0.1,10.3,0.1L10.3,0.1z"/>
	</g>
</mask>
<path id="stripe_red_03" mask="url(#b_9_)" fill-rule="evenodd" clip-rule="evenodd" fill="#E4171E" d="M-4.9,8h30.2V6.4H-4.9V8z"/>
<defs>
	<filter id="Adobe_OpacityMaskFilter_9_" filterUnits="userSpaceOnUse" x="-4.9" y="4.8" width="30.2" height="1.6">
		<feColorMatrix  type="matrix" values="1 0 0 0 0  0 1 0 0 0  0 0 1 0 0  0 0 0 1 0"/>
	</filter>
</defs>
<mask maskUnits="userSpaceOnUse" x="-4.9" y="4.8" width="30.2" height="1.6" id="stripe_white_02_2_">
	<g filter="url(#Adobe_OpacityMaskFilter_9_)">
		<path fill-rule="evenodd" clip-rule="evenodd" fill="#FFFFFF" d="M10.3,0.1C4.7,0.1,0.2,4.7,0.2,10.3s4.5,10.2,10.1,10.2
			s10.1-4.6,10.1-10.2S15.8,0.1,10.3,0.1L10.3,0.1z"/>
	</g>
</mask>
<path id="stripe_white_02" mask="url(#stripe_white_02_2_)" fill-rule="evenodd" clip-rule="evenodd" fill="#FCFCFC" d="M-4.9,6.4
	h30.2V4.8H-4.9V6.4z"/>
<defs>
	<filter id="Adobe_OpacityMaskFilter_10_" filterUnits="userSpaceOnUse" x="-4.9" y="3.3" width="30.2" height="1.5">
		<feColorMatrix  type="matrix" values="1 0 0 0 0  0 1 0 0 0  0 0 1 0 0  0 0 0 1 0"/>
	</filter>
</defs>
<mask maskUnits="userSpaceOnUse" x="-4.9" y="3.3" width="30.2" height="1.5" id="b_11_">
	<g filter="url(#Adobe_OpacityMaskFilter_10_)">
		<path id="a_11_" fill-rule="evenodd" clip-rule="evenodd" fill="#FFFFFF" d="M10.3,0.1C4.7,0.1,0.2,4.7,0.2,10.3
			s4.5,10.2,10.1,10.2s10.1-4.6,10.1-10.2S15.8,0.1,10.3,0.1L10.3,0.1z"/>
	</g>
</mask>
<path id="stripe_red_02" mask="url(#b_11_)" fill-rule="evenodd" clip-rule="evenodd" fill="#E4171E" d="M-4.9,4.8h30.2V3.3H-4.9
	V4.8z"/>
<defs>
	<filter id="Adobe_OpacityMaskFilter_11_" filterUnits="userSpaceOnUse" x="-4.9" y="1.7" width="30.2" height="1.6">
		<feColorMatrix  type="matrix" values="1 0 0 0 0  0 1 0 0 0  0 0 1 0 0  0 0 0 1 0"/>
	</filter>
</defs>
<mask maskUnits="userSpaceOnUse" x="-4.9" y="1.7" width="30.2" height="1.6" id="stripe_white_01_2_">
	<g filter="url(#Adobe_OpacityMaskFilter_11_)">
		<path fill-rule="evenodd" clip-rule="evenodd" fill="#FFFFFF" d="M10.3,0.1C4.7,0.1,0.2,4.7,0.2,10.3s4.5,10.2,10.1,10.2
			s10.1-4.6,10.1-10.2S15.8,0.1,10.3,0.1L10.3,0.1z"/>
	</g>
</mask>
<path id="stripe_white_01" mask="url(#stripe_white_01_2_)" fill-rule="evenodd" clip-rule="evenodd" fill="#FCFCFC" d="M-4.9,3.3
	h30.2V1.7H-4.9V3.3z"/>
<defs>
	<filter id="Adobe_OpacityMaskFilter_12_" filterUnits="userSpaceOnUse" x="-4.9" y="0.1" width="30.2" height="1.6">
		<feColorMatrix  type="matrix" values="1 0 0 0 0  0 1 0 0 0  0 0 1 0 0  0 0 0 1 0"/>
	</filter>
</defs>
<mask maskUnits="userSpaceOnUse" x="-4.9" y="0.1" width="30.2" height="1.6" id="b_13_">
	<g filter="url(#Adobe_OpacityMaskFilter_12_)">
		<path id="a_13_" fill-rule="evenodd" clip-rule="evenodd" fill="#FFFFFF" d="M10.3,0.1C4.7,0.1,0.2,4.7,0.2,10.3
			s4.5,10.2,10.1,10.2s10.1-4.6,10.1-10.2S15.8,0.1,10.3,0.1L10.3,0.1z"/>
	</g>
</mask>
<path id="stripe_red_01" mask="url(#b_13_)" fill-rule="evenodd" clip-rule="evenodd" fill="#E4171E" d="M-4.9,1.7h30.2V0.1H-4.9
	V1.7z"/>
<defs>
	<filter id="Adobe_OpacityMaskFilter_13_" filterUnits="userSpaceOnUse" x="-4.9" y="0.1" width="15" height="11">
		<feColorMatrix  type="matrix" values="1 0 0 0 0  0 1 0 0 0  0 0 1 0 0  0 0 0 1 0"/>
	</filter>
</defs>
<mask maskUnits="userSpaceOnUse" x="-4.9" y="0.1" width="15" height="11" id="blue_2_">
	<g filter="url(#Adobe_OpacityMaskFilter_13_)">
		<path fill-rule="evenodd" clip-rule="evenodd" fill="#FFFFFF" d="M10.3,0.1C4.7,0.1,0.2,4.7,0.2,10.3s4.5,10.2,10.1,10.2
			s10.1-4.6,10.1-10.2S15.8,0.1,10.3,0.1L10.3,0.1z"/>
	</g>
</mask>
<path id="blue" mask="url(#blue_2_)" fill-rule="evenodd" clip-rule="evenodd" fill="#0055A5" d="M-4.9,11.1h15v-11h-15
	C-4.9,0.1-4.9,11.1-4.9,11.1z"/>
<defs>
	<filter id="Adobe_OpacityMaskFilter_14_" filterUnits="userSpaceOnUse" x="-0.3" y="0.6" width="9.7" height="9.9">
		<feColorMatrix  type="matrix" values="1 0 0 0 0  0 1 0 0 0  0 0 1 0 0  0 0 0 1 0"/>
	</filter>
</defs>
<mask maskUnits="userSpaceOnUse" x="-0.3" y="0.6" width="9.7" height="9.9" id="b_15_">
	<g filter="url(#Adobe_OpacityMaskFilter_14_)">
		<path id="a_15_" fill-rule="evenodd" clip-rule="evenodd" fill="#FFFFFF" d="M10.3,0.1C4.7,0.1,0.2,4.7,0.2,10.3
			s4.5,10.2,10.1,10.2s10.1-4.6,10.1-10.2S15.8,0.1,10.3,0.1L10.3,0.1z"/>
	</g>
</mask>
<path id="stars" mask="url(#b_15_)" fill-rule="evenodd" clip-rule="evenodd" fill="#FCFCFC" d="M1.5,1L1.4,0.6L1.3,0.9V1H0.9
	l0.3,0.2l0,0L1.1,1.7l0.3-0.2l0.3,0.2L1.6,1.3L1.9,1H1.5z M4,1L3.9,0.6L3.8,0.9V1H3.3l0.3,0.2l0,0v0.5l0.3-0.2l0.3,0.2L4.1,1.3
	L4.4,1H4z M6.5,1L6.4,0.6L6.3,0.9V1H5.8l0.3,0.2l0,0L6,1.7l0.3-0.2l0.3,0.2V1.3L6.9,1H6.5z M9,1L8.9,0.6L8.8,0.9V1H8.3l0.3,0.2l0,0
	L8.5,1.7l0.3-0.2l0.3,0.2V1.3L9.4,1H9z M0.3,2.1L0.2,1.7L0.1,2v0.1h-0.4L0,2.3l0,0l-0.1,0.4l0.3-0.2l0.3,0.2L0.4,2.4l0.3-0.2
	L0.3,2.1z M2.8,2.1L2.6,1.7V2v0.1H2.1l0.3,0.2l0,0L2.3,2.8l0.3-0.2L3,2.8L2.9,2.4l0.3-0.2L2.8,2.1z M5.3,2.1L5.1,1.7V2v0.1H4.6
	l0.3,0.2l0,0L4.8,2.8l0.3-0.2l0.3,0.2V2.4l0.3-0.2L5.3,2.1z M7.8,2.1L7.6,1.7L7.5,2v0.1H7.1l0.3,0.2l0,0L7.3,2.8l0.3-0.2L8,2.8
	L7.8,2.4l0.3-0.2L7.8,2.1z M1.5,3.3L1.4,2.9L1.3,3.1v0.1H0.9l0.3,0.2l0,0L1.1,3.9l0.3-0.2l0.3,0.2L1.6,3.5l0.3-0.2H1.5z M4,3.3
	L3.9,2.9L3.8,3.1v0.1H3.3l0.3,0.2l0,0v0.5l0.3-0.2l0.3,0.2L4.1,3.5l0.3-0.2H4z M6.5,3.3L6.4,2.9L6.3,3.1v0.1H5.8l0.3,0.2l0,0v0.5
	l0.3-0.2l0.3,0.2L6.6,3.5l0.3-0.2H6.5z M9,3.3L8.9,2.9L8.8,3.1v0.1H8.3l0.3,0.2l0,0L8.5,3.9l0.3-0.2l0.3,0.2V3.5l0.3-0.2H9z
	 M0.3,4.4L0.2,4L0.1,4.2v0.1h-0.4L0,4.5l0,0L-0.2,5l0.3-0.2L0.5,5L0.4,4.6l0.3-0.2H0.3z M2.8,4.4L2.6,4v0.2v0.1H2.1l0.3,0.2l0,0
	L2.3,5l0.3-0.2L3,5L2.9,4.6l0.3-0.2H2.8z M5.3,4.4L5.1,4v0.2v0.1H4.6l0.3,0.2l0,0L4.8,5l0.3-0.2L5.5,5L5.4,4.6l0.3-0.2H5.3z
	 M7.8,4.4L7.6,4L7.5,4.2v0.1H7.1l0.3,0.2l0,0L7.3,5l0.3-0.2L8,5L7.8,4.6l0.3-0.2H7.8z M1.5,5.5L1.4,5.1L1.3,5.4v0.1H0.9l0.3,0.2l0,0
	L1.1,6.1l0.3-0.2l0.3,0.2L1.6,5.7l0.3-0.2H1.5z M4,5.5L3.9,5.1L3.8,5.4v0.1H3.3l0.3,0.2l0,0v0.4l0.3-0.2l0.3,0.2L4.1,5.7l0.3-0.2H4z
	 M6.5,5.5L6.4,5.1L6.3,5.4v0.1H5.8l0.3,0.2l0,0v0.4l0.3-0.2l0.3,0.2L6.6,5.7l0.3-0.2H6.5z M9,5.5L8.9,5.1L8.8,5.4v0.1H8.3l0.3,0.2
	l0,0L8.5,6.1l0.3-0.2l0.3,0.2V5.7l0.3-0.2H9z M0.3,6.6L0.2,6.2L0.1,6.5v0.1h-0.4L0,6.8l0,0l-0.1,0.4L0.2,7l0.3,0.2L0.4,6.8l0.3-0.2
	C0.7,6.6,0.3,6.6,0.3,6.6z M2.8,6.6L2.6,6.2v0.3v0.1H2.1l0.3,0.2l0,0L2.3,7.2L2.6,7L3,7.2L2.9,6.8l0.3-0.2C3.2,6.6,2.8,6.6,2.8,6.6z
	 M5.3,6.6L5.1,6.2v0.3v0.1H4.6l0.3,0.2l0,0L4.8,7.2L5.1,7l0.3,0.2V6.8l0.3-0.2C5.7,6.6,5.3,6.6,5.3,6.6z M7.8,6.6L7.6,6.2L7.5,6.5
	v0.1H7.1l0.3,0.2l0,0L7.3,7.2L7.6,7L8,7.2L7.8,6.8l0.3-0.2C8.1,6.6,7.8,6.6,7.8,6.6z M1.5,7.7L1.4,7.3L1.3,7.6v0.1H0.9L1.2,8l0,0
	L1.1,8.4l0.3-0.2l0.3,0.2L1.6,8l0.3-0.2H1.5V7.7z M4,7.7L3.9,7.3L3.8,7.6v0.1H3.3L3.7,8l0,0L3.6,8.4l0.3-0.2l0.3,0.2L4.1,8l0.3-0.2
	H4V7.7z M6.5,7.7L6.4,7.3L6.3,7.6v0.1H5.8L6.2,8l0,0L6.1,8.4l0.3-0.2l0.3,0.2L6.6,8l0.3-0.2H6.5V7.7z M9,7.7L8.9,7.3L8.8,7.6v0.1
	H8.3L8.7,8l0,0L8.5,8.4l0.3-0.2l0.3,0.2V8l0.3-0.2H9V7.7z M0.3,8.8L0.2,8.4L0.1,8.7v0.1h-0.4L0,9l0,0l-0.1,0.4l0.3-0.2l0.3,0.2
	L0.4,9.1l0.3-0.2H0.3V8.8z M2.8,8.8L2.6,8.4v0.3v0.1H2.1L2.4,9l0,0L2.3,9.5l0.3-0.2L3,9.5L2.9,9.1l0.3-0.2H2.8V8.8z M5.3,8.8
	L5.1,8.4v0.3v0.1H4.6L4.9,9l0,0L4.8,9.5l0.3-0.2l0.3,0.2V9.1l0.3-0.2H5.3V8.8z M7.8,8.8L7.6,8.4L7.5,8.7v0.1H7.1L7.4,9l0,0L7.3,9.5
	l0.3-0.2L8,9.5L7.8,9.1l0.3-0.2H7.8V8.8z M1.5,9.9L1.4,9.5L1.3,9.8v0.1H0.9l0.3,0.2l0,0l-0.1,0.4l0.3-0.2l0.3,0.2l-0.1-0.4l0.3-0.2
	C1.9,9.9,1.5,9.9,1.5,9.9z M4,9.9L3.9,9.5L3.8,9.8v0.1H3.3l0.3,0.2l0,0l-0.1,0.4l0.3-0.2l0.3,0.2L4,10.1l0.3-0.2
	C4.3,9.9,4,9.9,4,9.9z M6.5,9.9L6.4,9.5L6.3,9.8v0.1H5.8l0.3,0.2l0,0L6,10.5l0.3-0.2l0.3,0.2l-0.1-0.4l0.3-0.2
	C6.8,9.9,6.5,9.9,6.5,9.9z M9,9.9L8.9,9.5L8.8,9.8v0.1H8.3l0.3,0.2l0,0l-0.1,0.4l0.3-0.2l0.3,0.2L9,10.1l0.3-0.2
	C9.3,9.9,9,9.9,9,9.9z"/>
</svg>
