<?xml version="1.0" encoding="utf-8"?>
<!-- Generator: Adobe Illustrator 23.0.6, SVG Export Plug-In . SVG Version: 6.00 Build 0)  -->
<svg version="1.1" id="Layer_1" xmlns="http://www.w3.org/2000/svg" xmlns:xlink="http://www.w3.org/1999/xlink" x="0px" y="0px"
	 viewBox="0 0 18.5 19.5" enable-background="new 0 0 18.5 19.5" xml:space="preserve">
<path id="top_link" fill="none" stroke="#99999A" stroke-width="1.5" stroke-linecap="round" d="M9.3,4.4l2.5-2.6
	c1.4-1.4,3.6-1.4,4.9,0c1.4,1.4,1.4,3.7,0,5.2l-3.9,4.1c-1.4,1.4-3.6,1.4-4.9,0c-0.2-0.2-0.3-0.4-0.4-0.6"/>
<path id="bottom_link" fill="none" stroke="#99999A" stroke-width="1.5" stroke-linecap="round" d="M9.2,15.1l-2.5,2.6
	c-1.4,1.4-3.6,1.4-4.9,0c-1.4-1.4-1.4-3.7,0-5.2l3.9-4.1C7.1,7,9.3,7,10.6,8.4C10.8,8.6,10.9,8.8,11,9"/>
</svg>
