<?xml version="1.0" encoding="utf-8"?>
<!-- Generator: Adobe Illustrator 23.0.6, SVG Export Plug-In . SVG Version: 6.00 Build 0)  -->
<svg version="1.1" id="icon" xmlns="http://www.w3.org/2000/svg" xmlns:xlink="http://www.w3.org/1999/xlink" x="0px" y="0px"
	 viewBox="0 0 15.6 15.5" enable-background="new 0 0 15.6 15.5" xml:space="preserve">
<path id="arrow_1_" fill="#9B9B9B" d="M13.2,7.2c0.4,0,0.7-0.3,0.7-0.8s-0.3-0.8-0.8-0.8h-2.2l4.5-4.3c0.3-0.3,0.3-0.8,0-1.1
	C15.3,0.1,15.1,0,14.9,0s-0.4,0.1-0.5,0.2L9.9,4.6V2.4c0-0.4-0.3-0.8-0.8-0.8S8.3,1.9,8.3,2.4v4.8C8.3,7.2,13.2,7.2,13.2,7.2z"/>
<path id="arrow" fill="#9B9B9B" d="M0.2,15.3c0.3,0.3,0.8,0.3,1.1,0l4.4-4.4v2.2c0,0.4,0.3,0.8,0.8,0.8s0.6-0.3,0.6-0.7V8.4H2.3
	c-0.4,0-0.8,0.3-0.8,0.8s0.4,0.7,0.8,0.7h2.2l-4.4,4.4C-0.1,14.6-0.1,15.1,0.2,15.3z"/>
</svg>
