<?xml version="1.0" encoding="utf-8"?>
<!-- Generator: Adobe Illustrator 23.0.6, SVG Export Plug-In . SVG Version: 6.00 Build 0)  -->
<svg version="1.1" id="icon" xmlns="http://www.w3.org/2000/svg" xmlns:xlink="http://www.w3.org/1999/xlink" x="0px" y="0px"
	 viewBox="0 0 22 15" enable-background="new 0 0 22 15" xml:space="preserve">
<path id="shadow" fill-rule="evenodd" clip-rule="evenodd" fill="#ACACAC" d="M22,3v10c0,1.1-0.9,2-2,2H3c-1.1,0-2-0.9-2-2V3
	c0-1.1,0.9-2,2-2h17C21.1,1,22,1.9,22,3z"/>
<path id="modal" fill-rule="evenodd" clip-rule="evenodd" fill="#D8D8D8" d="M21,2v10c0,1.1-0.9,2-2,2H2c-1.1,0-2-0.9-2-2V2
	c0-1.1,0.9-2,2-2h17C20.1,0,21,0.9,21,2z"/>
<rect id="button" x="3" y="10" fill-rule="evenodd" clip-rule="evenodd" fill="#FFFFFF" width="6" height="2"/>
<rect id="type_bottom" x="3" y="7" fill-rule="evenodd" clip-rule="evenodd" fill="#FFFFFF" width="8" height="1"/>
<rect id="type_middle" x="3" y="5" fill-rule="evenodd" clip-rule="evenodd" fill="#FFFFFF" width="14" height="1"/>
<rect id="type_top" x="3" y="3" fill-rule="evenodd" clip-rule="evenodd" fill="#FFFFFF" width="11" height="1"/>
</svg>
