<?xml version="1.0" encoding="utf-8"?>
<!-- Generator: Adobe Illustrator 23.0.6, SVG Export Plug-In . SVG Version: 6.00 Build 0)  -->
<svg version="1.1" id="icon" xmlns="http://www.w3.org/2000/svg" xmlns:xlink="http://www.w3.org/1999/xlink" x="0px" y="0px"
	 viewBox="0 0 20 15" enable-background="new 0 0 20 15" xml:space="preserve">
<path id="curl" fill="#9B9B9B" d="M0,7h5c1.1,0,2-0.9,2-2V0L0,7z"/>
<path id="border" fill="none" stroke="#9B9B9B" d="M6.2,0.5H18c0.8,0,1.5,0.6,1.5,1.4v11.2c0,0.8-0.7,1.4-1.5,1.4H2
	c-0.8,0-1.5-0.6-1.5-1.4V5.8L6.2,0.5z"/>
<polygon id="plus" fill="#9B9B9B" points="14,7 11,7 11,4 10,4 10,7 7,7 7,8 10,8 10,11 11,11 11,8 14,8 "/>
</svg>
