<?xml version="1.0" encoding="utf-8"?>
<!-- Generator: Adobe Illustrator 23.0.6, SVG Export Plug-In . SVG Version: 6.00 Build 0)  -->
<svg version="1.1" id="icon" xmlns="http://www.w3.org/2000/svg" xmlns:xlink="http://www.w3.org/1999/xlink" x="0px" y="0px"
	 viewBox="0 0 20 19" enable-background="new 0 0 20 19" xml:space="preserve">
<path id="drop" fill-rule="evenodd" clip-rule="evenodd" fill="#9B9B9B" d="M15.9,12.3C15.9,12.4,15.9,12.4,15.9,12.3L15.9,12.3
	c0,0.1-0.1,0.2-0.1,0.3l0,0c0,0,0,0,0,0.1l0,0c0,0.1,0,0.2,0,0.3l0,0c0,1,0.8,1.8,1.8,1.8l0,0c1,0,1.8-0.8,1.8-1.8l0,0
	c0-0.1,0-0.2,0-0.3l0,0c0,0,0,0,0-0.1l0,0c0-0.1,0-0.2-0.1-0.3l0,0l0,0l0,0c-0.4-1-1.7-1.6-1.7-2.9l0,0
	C17.6,10.8,16.4,11.3,15.9,12.3"/>
<path id="sparkle_1_" fill-rule="evenodd" clip-rule="evenodd" fill="#FFFFFF" d="M18.2,13.7c-0.3,0.2-0.6,0.4-1,0.5v0.5
	c0.1,0,0.2,0,0.4,0c0.4,0,0.8-0.2,1.1-0.4L18.2,13.7z"/>
<path id="sparkle" fill-rule="evenodd" clip-rule="evenodd" fill="#FFFFFF" d="M18.9,14c0.1-0.2,0.2-0.4,0.3-0.6L18.8,13
	c-0.1,0.2-0.2,0.4-0.4,0.5L18.9,14z"/>
<path id="border" fill-rule="evenodd" clip-rule="evenodd" fill="#9B9B9B" d="M14.1,7.2L14.1,7.2l-8.9,8.9C4.4,17,3,17,2.1,16.1
	s-0.9-2.3,0-3.1l5.8-5.8l0,0l4.3-4.3L15.3,6L14.1,7.2z M11.4,0c-0.3,0.3-0.1,1.7-0.6,2.1c-0.2,0.2-0.5,0.5-0.7,0.7l0,0L10,2.9
	l-8.9,8.9c-1.4,1.4-1.4,3.8,0,5.2s3.8,1.4,5.2,0l8.9-8.9L15.3,8l0,0c0.3-0.3,0.6-0.6,0.7-0.7c0.4-0.4,1.7-0.3,2.1-0.5l0,0L11.4,0z"
	/>
<defs>
	<filter id="Adobe_OpacityMaskFilter" filterUnits="userSpaceOnUse" x="1.6" y="7.2" width="12.5" height="9.6">
		<feColorMatrix  type="matrix" values="1 0 0 0 0  0 1 0 0 0  0 0 1 0 0  0 0 0 1 0"/>
	</filter>
</defs>
<mask maskUnits="userSpaceOnUse" x="1.6" y="7.2" width="12.5" height="9.6" id="mask-2_2_">
	<g filter="url(#Adobe_OpacityMaskFilter)">
		<path id="path-1_2_" fill-rule="evenodd" clip-rule="evenodd" fill="#FFFFFF" d="M8.3,7.2C5.7,9.8,2.8,12.6,2.5,13l0,0
			c-0.6,0.6-1.2,1.6-0.8,2.5l0,0c0.1,0.2,0.2,0.4,0.4,0.6l0,0C3,17,4.4,17,5.2,16.1l0,0l8.9-8.9C14.1,7.2,8.3,7.2,8.3,7.2z M7,9.4
			C7,9,7.3,8.7,7.7,8.7l0,0c0.4,0,0.7,0.3,0.7,0.7l0,0c0,0.4-0.3,0.7-0.7,0.7l0,0C7.3,10.1,7,9.8,7,9.4L7,9.4z M6.2,10.9
			c0-0.2,0.2-0.4,0.4-0.4l0,0c0.2,0,0.4,0.2,0.4,0.4l0,0c0,0.2-0.2,0.4-0.4,0.4l0,0C6.4,11.2,6.2,11.1,6.2,10.9L6.2,10.9z M8.1,11.2
			c0-0.2,0.2-0.4,0.4-0.4l0,0c0.2,0,0.4,0.2,0.4,0.4l0,0c0,0.2-0.2,0.4-0.4,0.4l0,0C8.2,11.6,8.1,11.4,8.1,11.2L8.1,11.2z M4.8,12.7
			c0-0.4,0.3-0.7,0.7-0.7l0,0c0.4,0,0.7,0.3,0.7,0.7l0,0c0,0.4-0.3,0.7-0.7,0.7l0,0C5.1,13.4,4.8,13.1,4.8,12.7L4.8,12.7z M4.4,14.5
			c0-0.2,0.2-0.4,0.4-0.4l0,0c0.2,0,0.4,0.2,0.4,0.4l0,0c0,0.2-0.2,0.4-0.4,0.4l0,0C4.6,14.9,4.4,14.7,4.4,14.5L4.4,14.5z"/>
	</g>
</mask>
<path id="liquid" mask="url(#mask-2_2_)" fill-rule="evenodd" clip-rule="evenodd" fill="#9B9B9B" fill-opacity="0.499" d="M8.3,7.2
	C5.7,9.8,2.8,12.6,2.5,13l0,0c-0.6,0.6-1.2,1.6-0.8,2.5l0,0c0.1,0.2,0.2,0.4,0.4,0.6l0,0C3,17,4.4,17,5.2,16.1l0,0l8.9-8.9
	C14.1,7.2,8.3,7.2,8.3,7.2z M7,9.4C7,9,7.3,8.7,7.7,8.7l0,0c0.4,0,0.7,0.3,0.7,0.7l0,0c0,0.4-0.3,0.7-0.7,0.7l0,0
	C7.3,10.1,7,9.8,7,9.4L7,9.4z M6.2,10.9c0-0.2,0.2-0.4,0.4-0.4l0,0c0.2,0,0.4,0.2,0.4,0.4l0,0c0,0.2-0.2,0.4-0.4,0.4l0,0
	C6.4,11.2,6.2,11.1,6.2,10.9L6.2,10.9z M8.1,11.2c0-0.2,0.2-0.4,0.4-0.4l0,0c0.2,0,0.4,0.2,0.4,0.4l0,0c0,0.2-0.2,0.4-0.4,0.4l0,0
	C8.2,11.6,8.1,11.4,8.1,11.2L8.1,11.2z M4.8,12.7c0-0.4,0.3-0.7,0.7-0.7l0,0c0.4,0,0.7,0.3,0.7,0.7l0,0c0,0.4-0.3,0.7-0.7,0.7l0,0
	C5.1,13.4,4.8,13.1,4.8,12.7L4.8,12.7z M4.4,14.5c0-0.2,0.2-0.4,0.4-0.4l0,0c0.2,0,0.4,0.2,0.4,0.4l0,0c0,0.2-0.2,0.4-0.4,0.4l0,0
	C4.6,14.9,4.4,14.7,4.4,14.5L4.4,14.5z"/>
</svg>
