<?xml version="1.0" encoding="utf-8"?>
<!-- Generator: Adobe Illustrator 23.0.6, SVG Export Plug-In . SVG Version: 6.00 Build 0)  -->
<svg version="1.1" id="icon" xmlns="http://www.w3.org/2000/svg" xmlns:xlink="http://www.w3.org/1999/xlink" x="0px" y="0px"
	 viewBox="0 0 21 18" enable-background="new 0 0 21 18" xml:space="preserve">
<path id="border" fill="#9B9B9B" d="M14.9,6.3V4.8c0-0.3-0.2-0.5-0.5-0.5s-0.5,0.2-0.5,0.5v1.5H6.3v11.2h14.4V6.3H14.9z M19.7,16.5
	H7.3V7.3h12.4V16.5z"/>
<polygon id="plus" fill="#9B9B9B" points="17,11.5 14,11.5 14,8.5 13,8.5 13,11.5 10,11.5 10,12.5 13,12.5 13,15.5 14,15.5 14,12.5 
	17,12.5 "/>
<path id="dotted_line_7_" fill="#9B9B9B" d="M5.6,10.7h-2c-0.3,0-0.5,0.2-0.5,0.5s0.2,0.5,0.5,0.5h2c0.3,0,0.5-0.2,0.5-0.5
	S5.8,10.7,5.6,10.7z"/>
<path id="dotted_line_6_" fill="#9B9B9B" d="M1.6,10.7L1.6,10.7L1.5,9.8c0-0.3-0.2-0.5-0.5-0.5S0.5,9.5,0.5,9.8v0.8v0.6v0.5H1h0.3
	h0.3c0.3,0,0.5-0.2,0.5-0.5S1.8,10.7,1.6,10.7z"/>
<path id="dotted_line_5_" fill="#9B9B9B" d="M1,8.3c0.3,0,0.5-0.2,0.5-0.5v-2c0-0.3-0.2-0.5-0.5-0.5S0.5,5.5,0.5,5.8v2
	C0.5,8.1,0.7,8.3,1,8.3z"/>
<path id="dotted_line_4_" fill="#9B9B9B" d="M1,4.3c0.3,0,0.5-0.2,0.5-0.5v-2c0-0.3-0.2-0.5-0.5-0.5S0.5,1.5,0.5,1.8v2
	C0.5,4.1,0.7,4.3,1,4.3z"/>
<path id="dotted_line_3_" fill="#9B9B9B" d="M4.7,1c0-0.3-0.2-0.5-0.5-0.5h-2C1.9,0.5,1.7,0.7,1.7,1s0.2,0.5,0.5,0.5h2
	C4.5,1.5,4.7,1.3,4.7,1z"/>
<path id="dotted_line_2_" fill="#9B9B9B" d="M8.2,0.5h-2C5.9,0.5,5.7,0.7,5.7,1s0.2,0.5,0.5,0.5h2c0.3,0,0.5-0.2,0.5-0.5
	S8.5,0.5,8.2,0.5z"/>
<path id="dotted_line_1_" fill="#9B9B9B" d="M12.2,0.5h-2C9.9,0.5,9.7,0.7,9.7,1s0.2,0.5,0.5,0.5h2c0.3,0,0.5-0.2,0.5-0.5
	S12.5,0.5,12.2,0.5z"/>
<path id="dotted_line" fill="#9B9B9B" d="M14.4,0.5h-0.2l0,0l0,0c-0.3,0-0.5,0.2-0.5,0.5c0,0.2,0.1,0.3,0.2,0.4v1.3
	c0,0.3,0.2,0.5,0.5,0.5s0.5-0.2,0.5-0.5v-1V1V0.5H14.4z"/>
</svg>
