<?xml version="1.0" encoding="utf-8"?>
<!-- Generator: Adobe Illustrator 23.0.6, SVG Export Plug-In . SVG Version: 6.00 Build 0)  -->
<svg version="1.1" id="icon" xmlns="http://www.w3.org/2000/svg" xmlns:xlink="http://www.w3.org/1999/xlink" x="0px" y="0px"
	 viewBox="0 0 18.3 16.1" enable-background="new 0 0 18.3 16.1" xml:space="preserve">
<path id="settings" fill="#4A4A4A" d="M4,16.1H0.6c-0.3,0-0.6-0.3-0.6-0.6S0.3,15,0.6,15h1.1V0.6C1.7,0.3,2,0,2.3,0s0.6,0.3,0.6,0.6
	V15H4c0.3,0,0.6,0.3,0.6,0.6S4.3,16.1,4,16.1z M16,16c-0.3,0-0.6-0.3-0.6-0.6v-12h-1.1c-0.3,0-0.6-0.3-0.6-0.6s0.3-0.6,0.6-0.6h1.1
	V0.6C15.5,0.3,15.7,0,16,0c0.3,0,0.6,0.3,0.6,0.6v1.7h1.1c0.3,0,0.6,0.3,0.6,0.6S18,3.5,17.7,3.5h-1.1v12C16.6,15.8,16.4,16,16,16z
	 M9.2,16c-0.3,0-0.6-0.3-0.6-0.6V8.6H7.4C7.1,8.6,6.9,8.3,6.9,8s0.3-0.6,0.6-0.6h1.1V0.6C8.6,0.3,8.9,0,9.2,0s0.6,0.3,0.6,0.6v6.9
	h1.1c0.3,0,0.6,0.3,0.6,0.6s-0.3,0.6-0.6,0.6H9.7v6.9C9.7,15.8,9.5,16,9.2,16z"/>
</svg>
