<?xml version="1.0" encoding="utf-8"?>
<!-- Generator: Adobe Illustrator 23.0.6, SVG Export Plug-In . SVG Version: 6.00 Build 0)  -->
<svg version="1.1" id="icon" xmlns="http://www.w3.org/2000/svg" xmlns:xlink="http://www.w3.org/1999/xlink" x="0px" y="0px"
	 viewBox="0 0 23 19" enable-background="new 0 0 23 19" xml:space="preserve">
<path fill="#4A4A4A" d="M21.8,0H1.2C0.5,0,0,0.6,0,1.3v12.5C0,14.4,0.5,15,1.2,15H11v3H7.7c-0.3,0-0.5,0.2-0.5,0.5S7.4,19,7.7,19
	h7.7c0.3,0,0.5-0.2,0.5-0.5S15.6,18,15.3,18H12v-3h9.8c0.7,0,1.2-0.6,1.2-1.3V1.3C23,0.6,22.5,0,21.8,0z M22,13.5
	c0,0.2-0.2,0.4-0.4,0.4H1.4c-0.2,0-0.4-0.2-0.4-0.4V1.4C1,1.2,1.2,1,1.4,1h20.3C21.8,1,22,1.2,22,1.4V13.5z"/>
</svg>
