<?xml version="1.0" encoding="utf-8"?>
<!-- Generator: Adobe Illustrator 23.0.6, SVG Export Plug-In . SVG Version: 6.00 Build 0)  -->
<svg version="1.1" id="Layer_1" xmlns="http://www.w3.org/2000/svg" xmlns:xlink="http://www.w3.org/1999/xlink" x="0px" y="0px"
	 viewBox="0 0 20 16" enable-background="new 0 0 20 16" xml:space="preserve">
<path id="calendar" fill="#D8D8D8" d="M18,0H2C0.9,0,0,0.9,0,2v12c0,1.1,0.9,2,2,2h16c1.1,0,2-0.9,2-2V2C20,0.9,19.1,0,18,0z"/>
<path id="header" fill="#4A90E2" d="M18,0H2C0.9,0,0,0.9,0,2v2h20V2C20,0.9,19.1,0,18,0z"/>
<circle id="date_01" fill="#9B9B9B" fill-opacity="0.4" cx="4" cy="7" r="1"/>
<circle id="date_02" fill="#9B9B9B" cx="7" cy="7" r="1"/>
<circle id="date_03" fill="#9B9B9B" cx="10" cy="7" r="1"/>
<circle id="date_04" fill="#9B9B9B" cx="13" cy="7" r="1"/>
<circle id="date_05" fill="#9B9B9B" cx="16" cy="7" r="1"/>
<circle id="date_06" fill="#9B9B9B" cx="16" cy="10" r="1"/>
<circle id="date_07" fill="#9B9B9B" cx="13" cy="10" r="1"/>
<circle id="date_08" fill="#9B9B9B" cx="10" cy="10" r="1"/>
<circle id="date_09" fill="#9B9B9B" cx="7" cy="10" r="1"/>
<circle id="date_10_1_" fill="#9B9B9B" cx="4" cy="10" r="1"/>
<circle id="date_11" fill="#9B9B9B" cx="4" cy="13" r="1"/>
<circle id="date_12" fill="#9B9B9B" cx="7" cy="13" r="1"/>
<circle id="date_13" fill="#9B9B9B" cx="10" cy="13" r="1"/>
<circle id="date_14" fill="#9B9B9B" cx="13" cy="13" r="1"/>
<circle id="date_15" fill="#9B9B9B" fill-opacity="0.4" cx="16" cy="13" r="1"/>
</svg>
