<?xml version="1.0" encoding="utf-8"?>
<!-- Generator: Adobe Illustrator 23.0.6, SVG Export Plug-In . SVG Version: 6.00 Build 0)  -->
<svg version="1.1" id="icon" xmlns="http://www.w3.org/2000/svg" xmlns:xlink="http://www.w3.org/1999/xlink" x="0px" y="0px"
	 viewBox="0 0 50 50" enable-background="new 0 0 50 50" xml:space="preserve">
<path id="triangle" fill-rule="evenodd" clip-rule="evenodd" fill="#F4F4F4" d="M0,0h50L0,50V0z"/>
<path id="arrow" fill="#9B9B9B" d="M18.3,17.9L10.4,10h5.2l0,0c0.5,0,1-0.4,1-1s-0.4-1-1-1H7l0.1,8.7c0,0.5,0.5,1,1,1l0,0
	c0.6,0,1-0.5,1-1v-5.2l7.8,7.8c0.2,0.2,0.5,0.3,0.7,0.3s0.5-0.1,0.7-0.3C18.7,18.9,18.7,18.3,18.3,17.9z"/>
</svg>
