<?xml version="1.0" encoding="utf-8"?>
<!-- Generator: Adobe Illustrator 23.0.6, SVG Export Plug-In . SVG Version: 6.00 Build 0)  -->
<svg version="1.1" id="icon" xmlns="http://www.w3.org/2000/svg" xmlns:xlink="http://www.w3.org/1999/xlink" x="0px" y="0px"
	 viewBox="0 0 19.1 19.1" enable-background="new 0 0 19.1 19.1" xml:space="preserve">
<path id="search" fill="#9B9B9B" d="M18.8,17.4L18.8,17.4l-6.2-6.2C13.5,10,14,8.6,14,7c0-3.9-3.1-7-7-7S0,3.1,0,7s3.1,7,7,7
	c1.6,0,3-0.5,4.2-1.4l6.2,6.2l0,0c0.2,0.2,0.4,0.3,0.7,0.3c0.6,0,1-0.4,1-1C19.1,17.8,19,17.6,18.8,17.4z M7,12c-2.8,0-5-2.2-5-5
	s2.2-5,5-5s5,2.2,5,5S9.8,12,7,12z"/>
</svg>
