<?xml version="1.0" encoding="utf-8"?>
<!-- Generator: Adobe Illustrator 23.0.6, SVG Export Plug-In . SVG Version: 6.00 Build 0)  -->
<svg version="1.1" id="icon" xmlns="http://www.w3.org/2000/svg" xmlns:xlink="http://www.w3.org/1999/xlink" x="0px" y="0px"
	 viewBox="0 0 22 19" enable-background="new 0 0 22 19" xml:space="preserve">
<path id="border" fill="none" stroke="#F5A623" d="M2.5,0.5h17c1.1,0,2,0.9,2,2v14c0,1.1-0.9,2-2,2h-17c-1.1,0-2-0.9-2-2v-14
	C0.5,1.4,1.4,0.5,2.5,0.5z"/>
<path id="bar" fill="#F5A623" d="M2,0h18c1.1,0,2,0.9,2,2v3H0V2C0,0.9,0.9,0,2,0z"/>
<circle id="circle_2_" fill="#BA8227" cx="3" cy="2.5" r="1"/>
<circle id="circle_1_" fill="#BA8227" cx="6" cy="2.5" r="1"/>
<circle id="circle" fill="#BA8227" cx="9" cy="2.5" r="1"/>
<path id="pencil" fill="#F5A623" d="M15.3,6.7C15,6.3,14.5,6.1,14.1,6c-0.5-0.1-1,0.1-1.4,0.5L6.2,13l-0.9,3.7L9,15.8l6.5-6.5
	C15.9,9,16,8.5,16,7.9C15.9,7.5,15.7,7,15.3,6.7z M7,14l1,1l-1.3,0.3L7,14z M8.7,14.7l-1.4-1.4l5-5l1.4,1.4L8.7,14.7z M14.8,8.6
	l-0.6,0.6l-1.4-1.4l0.6-0.6C13.5,7.1,13.7,7,13.9,7s0.5,0.2,0.7,0.4L15,7l-0.4,0.4C14.7,7.5,15.3,8.1,14.8,8.6z"/>
</svg>
