<?xml version="1.0" encoding="utf-8"?>
<!-- Generator: Adobe Illustrator 23.0.6, SVG Export Plug-In . SVG Version: 6.00 Build 0)  -->
<svg version="1.1" id="Layer_1" xmlns="http://www.w3.org/2000/svg" xmlns:xlink="http://www.w3.org/1999/xlink" x="0px" y="0px"
	 viewBox="0 0 22 19" enable-background="new 0 0 22 19" xml:space="preserve">
<path id="calendar" fill="#4A90E2" d="M20,0h-0.5h-17H2C0.9,0,0,0.9,0,2v0.5V5v11.5C0,17.9,1.1,19,2.5,19h17c1.4,0,2.5-1.1,2.5-2.5
	V5V2.5V2C22,0.9,21.1,0,20,0z M21,16.5c0,0.8-0.7,1.5-1.5,1.5h-17C1.7,18,1,17.3,1,16.5V5h20V16.5z"/>
<circle id="date_01" fill="#9B9B9B" fill-opacity="0.4" cx="5" cy="8" r="1"/>
<circle id="date_02" fill="#4A90E2" cx="8" cy="8" r="1"/>
<circle id="date_03" fill="#4A90E2" cx="11" cy="8" r="1"/>
<circle id="date_04" fill="#4A90E2" cx="14" cy="8" r="1"/>
<circle id="date_05" fill="#4A90E2" cx="17" cy="8" r="1"/>
<circle id="date_06" fill="#4A90E2" cx="17" cy="11" r="1"/>
<circle id="date_07" fill="#4A90E2" cx="14" cy="11" r="1"/>
<circle id="date_08" fill="#4A90E2" cx="11" cy="11" r="1"/>
<circle id="date_09" fill="#4A90E2" cx="8" cy="11" r="1"/>
<circle id="date_10" fill="#4A90E2" cx="5" cy="11" r="1"/>
<circle id="date_11" fill="#4A90E2" cx="5" cy="14" r="1"/>
<circle id="date_12" fill="#4A90E2" cx="8" cy="14" r="1"/>
<circle id="date_13" fill="#4A90E2" cx="11" cy="14" r="1"/>
<circle id="date_14" fill="#4A90E2" cx="14" cy="14" r="1"/>
<circle id="date_15" fill="#9B9B9B" fill-opacity="0.4" cx="17" cy="14" r="1"/>
<circle id="circle_2_" fill="#D8D8D8" cx="3" cy="2.5" r="1"/>
<circle id="circle_1_" fill="#D8D8D8" cx="6" cy="2.5" r="1"/>
<circle id="circle" fill="#D8D8D8" cx="9" cy="2.5" r="1"/>
</svg>
