<?xml version="1.0" encoding="utf-8"?>
<!-- Generator: Adobe Illustrator 23.0.6, SVG Export Plug-In . SVG Version: 6.00 Build 0)  -->
<svg version="1.1" id="icon" xmlns="http://www.w3.org/2000/svg" xmlns:xlink="http://www.w3.org/1999/xlink" x="0px" y="0px"
	 viewBox="0 0 22 19" enable-background="new 0 0 22 19" xml:space="preserve">
<path id="border" fill="none" stroke="#4A4A4A" d="M2.5,0.5h17c1.1,0,2,0.9,2,2v14c0,1.1-0.9,2-2,2h-17c-1.1,0-2-0.9-2-2v-14
	C0.5,1.4,1.4,0.5,2.5,0.5z"/>
<path id="checkmark" fill="none" stroke="#4A4A4A" d="M7.5,12.1l2.5,2.3l5.5-6.9"/>
<path id="navbar" fill="#4A4A4A" d="M2,0h18c1.1,0,2,0.9,2,2v3H0V2C0,0.9,0.9,0,2,0z"/>
<circle id="circle_2_" fill="#D8D8D8" cx="3" cy="2.5" r="1"/>
<circle id="circle_1_" fill="#D8D8D8" cx="6" cy="2.5" r="1"/>
<circle id="circle" fill="#D8D8D8" cx="9" cy="2.5" r="1"/>
</svg>
