<?xml version="1.0" encoding="utf-8"?>
<!-- Generator: Adobe Illustrator 23.0.6, SVG Export Plug-In . SVG Version: 6.00 Build 0)  -->
<svg version="1.1" id="icon" xmlns="http://www.w3.org/2000/svg" xmlns:xlink="http://www.w3.org/1999/xlink" x="0px" y="0px"
	 viewBox="0 0 23 11" enable-background="new 0 0 23 11" xml:space="preserve">
<path id="shadow" fill-rule="evenodd" clip-rule="evenodd" fill="#ACACAC" d="M23,6L23,6c0,2.8-2.2,5-5,5H7c-2.8,0-5-2.2-5-5l0,0
	c0-2.8,2.2-5,5-5h11C20.8,1,23,3.2,23,6z"/>
<path id="toast" fill-rule="evenodd" clip-rule="evenodd" fill="#D8D8D8" d="M22,5L22,5c0,2.8-2.2,5-5,5H5c-2.8,0-5-2.2-5-5l0,0
	c0-2.8,2.2-5,5-5h12C19.8,0,22,2.2,22,5z"/>
<polyline id="checkmark" fill="none" stroke="#FFFFFF" points="3,5 4,6 6,4 "/>
<rect id="type_bottom" x="8" y="6" fill-rule="evenodd" clip-rule="evenodd" fill="#FFFFFF" width="11" height="1"/>
<rect id="type_top" x="8" y="4" fill-rule="evenodd" clip-rule="evenodd" fill="#FFFFFF" width="8" height="1"/>
</svg>
