<?xml version="1.0" encoding="utf-8"?>
<!-- Generator: Adobe Illustrator 23.0.6, SVG Export Plug-In . SVG Version: 6.00 Build 0)  -->
<svg version="1.1" id="icon" xmlns="http://www.w3.org/2000/svg" xmlns:xlink="http://www.w3.org/1999/xlink" x="0px" y="0px"
	 viewBox="0 0 13.6 15.6" enable-background="new 0 0 13.6 15.6" xml:space="preserve">
<path id="can" fill="#4A4A4A" d="M13.1,1.9H9.7V1.4c0-0.8-0.6-1.5-1.4-1.5H5.2C4.5,0.1,3.9,0.7,3.9,1.4v0.5H0.5C0.2,1.9,0,2.1,0,2.4
	s0.2,0.5,0.5,0.5h0.8L2,14c0.1,1,0.8,1.6,1.7,1.6h6.2c0.9,0,1.5-0.6,1.7-1.7l0.7-11h0.8c0.3,0,0.5-0.2,0.5-0.5S13.4,1.9,13.1,1.9z
	 M4.9,1.4c0-0.3,0.3-0.5,0.4-0.5h3c0.2,0,0.4,0.2,0.4,0.5v0.5H4.9V1.4z M10.6,13.8c-0.1,0.5-0.3,0.8-0.7,0.8H3.7
	c-0.4,0-0.6-0.3-0.7-0.7l-0.7-11h9L10.6,13.8z"/>
<path id="line_right" fill="#4A4A4A" d="M8.7,13.7L8.7,13.7c0.3,0,0.5-0.2,0.5-0.5l0.5-8.8c0-0.3-0.2-0.5-0.5-0.5
	C9,3.9,8.7,4.1,8.7,4.4l-0.5,8.8C8.2,13.4,8.4,13.7,8.7,13.7z"/>
<path id="line_center" fill="#4A4A4A" d="M6.8,13.7c0.3,0,0.5-0.2,0.5-0.5V4.4c0-0.3-0.2-0.5-0.5-0.5S6.3,4.1,6.3,4.4v8.8
	C6.3,13.5,6.5,13.7,6.8,13.7z"/>
<path id="line_left" fill="#4A4A4A" d="M4.9,13.7L4.9,13.7c0.3,0,0.5-0.2,0.5-0.5L4.9,4.4c0-0.3-0.2-0.5-0.5-0.5S3.9,4.1,3.9,4.4
	l0.5,8.8C4.4,13.5,4.6,13.7,4.9,13.7z"/>
</svg>
