<?xml version="1.0" encoding="UTF-8"?>
<svg width="26px" height="16px" viewBox="0 0 26 16" version="1.1" xmlns="http://www.w3.org/2000/svg" xmlns:xlink="http://www.w3.org/1999/xlink">
    <!-- Generator: sketchtool 60.1 (101010) - https://sketch.com -->
    <title>C3EAA224-5591-4CD1-BD39-0A9141645C6C</title>
    <desc>Created with sketchtool.</desc>
    <g id="Publish-Page" stroke="none" stroke-width="1" fill="none" fill-rule="evenodd">
        <g id="Product-List---Publish" transform="translate(-1062.000000, -262.000000)" stroke="#4A4A4A" stroke-width="2">
            <g id="Modal---Publish-Page" transform="translate(195.000000, 197.000000)">
                <g id="Modal">
                    <g id="Table" transform="translate(21.000000, 60.000000)">
                        <g id="btnCompare">
                            <g transform="translate(839.000000, 0.000000)">
                                <g id="icon-view-previous-asset" transform="translate(8.000000, 6.000000)">
                                    <path d="M11.97744,0 C5.09424,0 0.17744,7.0064 0.17744,7.0064 C0.17744,7.0064 5.09424,14.0128 11.97744,14.0128 C18.86144,14.0128 23.77744,7.0064 23.77744,7.0064 C23.77744,7.0064 18.86144,0 11.97744,0 Z" id="Stroke-1"></path>
                                    <path d="M11.97744,2.81096 C9.76784,2.81096 7.97744,4.60136 7.97744,6.81096 C7.97744,9.02056 9.76784,10.81096 11.97744,10.81096 C14.18704,10.81096 15.97744,9.02056 15.97744,6.81096 C15.97744,4.60136 14.18704,2.81096 11.97744,2.81096 Z" id="Stroke-3"></path>
                                    <path d="M10.59144,6.01248 C10.45544,6.24688 10.37704,6.52048 10.37704,6.81088 C10.37704,7.69408 11.09464,8.41088 11.97704,8.41088" id="Stroke-5" stroke-linecap="round"></path>
                                </g>
                            </g>
                        </g>
                    </g>
                </g>
            </g>
        </g>
    </g>
</svg>