<?xml version="1.0" encoding="utf-8"?>
<svg version="1.1" id="Layer_1" xmlns="http://www.w3.org/2000/svg" xmlns:xlink="http://www.w3.org/1999/xlink" x="0px" y="0px"
	 viewBox="0 0 20 20" style="enable-background:new 0 0 20 20;" xml:space="preserve">
<style type="text/css">
	.st0{fill:#231F20;}
</style>
<path class="st0" d="M19.6,17.6c0.6,0.6,0.6,1.4,0,2c-0.3,0.3-0.6,0.4-1,0.4s-0.7-0.1-1-0.4L10,12l-7.6,7.6c-0.3,0.3-0.6,0.4-1,0.4
	s-0.7-0.1-1-0.4c-0.6-0.6-0.6-1.4,0-2L8,10L0.4,2.4c-0.6-0.6-0.6-1.4,0-2c0.6-0.6,1.4-0.6,2,0L10,8l7.6-7.6c0.6-0.6,1.4-0.6,2,0
	c0.6,0.6,0.6,1.4,0,2L12,10L19.6,17.6z"/>
</svg>
